M48
;FILE_FORMAT=2:4
INCH,LZ
FMAT,2
ICI,OFF
;TYPE=PLATED
T1C.02
T2C.02795
T3C.035
T4C.039
T5C.041
T6C.043
T7C.045
T8C.05197
T9C.055
T10C.095
T11C.12
T12C.1311
%
M72
G90
G93X0Y0
T1C.02F197S55
X0045Y00525
X0005Y01075
X00275Y012
X00375Y01325
X00475Y0135
X003Y01675
X0045Y0175
X00275Y025
X005Y02825
X00525Y02875
X00125Y03075
X002Y0315
X00425Y03825
X00475Y03875
X0095Y033
X00825Y02925
X009Y026
X01025Y024
X01Y02225
X0055Y02075
X008Y01925
X0055Y0185
X0075Y018
X008Y017
X006Y013
X0055Y01275
X00975Y01
X00825Y002
X00775Y0015
X0145Y00225
X01325Y0105
X01075Y01075
X01325Y0115
X0145Y01325
X015Y0135
X01325Y01425
X01425Y01525
X013Y0155
X015Y01825
X01425Y0185
X01425Y01975
X01525Y02
X011Y02075
X01525Y021
X01525Y02175
X015Y02225
X01225Y0245
X0115Y0255
X01325Y02675
X013Y0285
X013Y0295
X015Y02975
X013Y03
X01275Y0305
X015Y031
X0125Y0315
X013Y032
X013Y0325
X01775Y0375
X01625Y0335
X01625Y033
X01675Y0315
X0175Y03125
X01775Y03075
X01675Y0285
X017Y02675
X01775Y02475
X01775Y024
X01625Y023
X01775Y0225
X0175Y0215
X01675Y02
X01725Y018
X01675Y01775
X016Y0175
X0165Y01725
X01725Y01725
X01575Y01625
X016Y01575
X017Y01525
X01725Y0145
X01675Y01425
X01725Y01375
X01775Y012
X01775Y01
X01775Y0095
X0175Y0085
X0165Y00675
X0165Y00575
X01825Y004
X01875Y0045
X01875Y006
X01975Y0105
X01875Y01275
X0185Y01375
X01975Y014
X01975Y0145
X01875Y01525
X019Y016
X019Y017
X02025Y017
X02Y0185
X019Y0195
X019Y0205
X018Y0235
X0185Y025
X0185Y02775
X02175Y032
X025Y02725
X02475Y0245
X02175Y02025
X02475Y019
X021Y0185
X024Y01775
X02225Y017
X024Y017
X025Y01625
X02225Y01625
X0205Y01625
X021Y01625
X02225Y01575
X0235Y01575
X02075Y0155
X02175Y0155
X02075Y015
X02375Y015
X0215Y015
X02175Y0125
X0235Y011
X0245Y0105
X0235Y009
X0255Y0085
X0255Y011
X02675Y018
X02725Y01825
X02625Y0215
X02625Y0235
X02625Y03025
X028Y03825
X031Y03875
X0335Y03125
X03525Y0215
X0315Y01675
X03125Y01625
X03075Y01375
X0345Y01275
X0315Y012
X03475Y0105
X03525Y008
X03075Y007
X035Y0015
X03775Y00425
X03575Y01025
X03575Y015
X0375Y02
T2C.02795F197S55
X013Y00275
X014Y00275
X015Y00275
T3C.035F197S55
X0047Y0097
X0057Y0097
X0067Y0097
X02915Y0178
X02545Y0141
X02915Y0141
T4C.039F197S55
X02602Y00696
X027Y00696
X027Y00775
X02602Y00775
T5C.041F139S55
X00622Y03462
X00878Y03462
X00622Y03638
X00878Y03638
X01172Y03638
X01428Y03638
X01722Y03638
X01172Y03462
X01722Y03462
X01428Y03462
X02297Y02662
X02297Y02838
X01978Y03462
X02247Y03462
X02503Y03462
X02247Y03638
X01978Y03638
X02503Y03638
X02553Y02838
X02553Y02662
T6C.043F139S55
X0095Y02075
X0045Y021
X0095Y02175
X0045Y022
X0095Y02275
X0045Y023
X0215Y02775
X0215Y02675
X0215Y02575
X0215Y02425
X0215Y02325
X0215Y02225
X02225Y01975
X02125Y01975
X0205Y0125
X0205Y0115
X0205Y01025
X0205Y00925
X0205Y00825
X032Y0065
X03275Y0135
X03175Y0135
X03275Y01525
X03175Y01525
X02325Y01975
X03075Y024
X02775Y02425
X03075Y025
X02775Y02525
X03075Y026
X02775Y02625
X033Y0065
X034Y0065
T7C.045F139S55
X031Y00325
X032Y00325
X036Y02825
X036Y02725
X036Y02625
X036Y02525
X036Y02425
X036Y02325
X033Y00325
X034Y00325
T8C.05197F107S55
X002059Y010935
X000941Y01148
X002059Y012026
X000941Y012571
X002059Y013116
X000941Y013661
X002059Y014207
X000941Y014752
X002059Y015297
X000941Y015843
X002059Y016388
X000941Y016933
X002059Y017478
X000941Y018024
X002059Y018569
X000941Y019114
X002059Y019659
X000941Y020205
X002059Y02075
X000941Y021295
X002059Y021841
X000941Y022386
X002059Y022931
X000941Y023476
X002059Y024022
X000941Y024567
X002059Y025112
X000941Y025657
X002059Y026203
X000941Y026748
X002059Y027293
X000941Y027839
X002059Y028384
X000941Y028929
X002059Y029474
X000941Y03002
X002059Y030565
T9C.055F107S55
X0065Y00575
X0085Y00575
T10C.095F066S55
X02414Y00589
X02888Y00589
T11C.12F035S794
X002Y002
X002Y03725
X03725Y03725
X03725Y002
T12C.1311F035S794
X0015Y00825
X0015Y03325
M30
