M48
;FILE_FORMAT=2:4
INCH,LZ
FMAT,2
ICI,OFF
;TYPE=PLATED
T1C.02
T2C.045
T3C.04528
T4C.052
T5C.12
T6C.12795
%
M72
G90
G93X0Y0
T1C.02F197S55
X0075Y006
X004Y01425
X0035Y015
X0035Y01925
X004Y02025
X005Y022
X0035Y023
X00275Y02775
X00925Y02075
X00975Y01975
X01175Y01875
X0135Y018
X0155Y0165
X015Y01
X0115Y0085
X0095Y00675
X017Y01125
X019Y01175
X01975Y01225
X02175Y01225
X02025Y0125
X0175Y0165
X023Y01925
X02175Y02025
X025Y02225
X027Y01725
X02375Y0115
X028Y0105
X03Y0105
X032Y01825
X0325Y0195
X03675Y02075
X034Y02175
X0365Y02925
T2C.045F139S55
X03575Y02425
X03575Y02525
X03575Y02625
T3C.04528F139S55
X002Y003935
X001Y00448
X002Y005026
X001Y005571
X002Y006116
X001Y006661
X002Y007207
X001Y007752
X002Y008297
X001Y008843
X002Y009388
X001Y009933
X002Y010478
X001Y011024
X002Y011569
X001Y012114
X002Y012659
X001Y013205
X002Y01375
X001Y014295
X002Y014841
X001Y015386
X002Y015931
X001Y016476
X002Y017022
X001Y017567
X002Y018112
X001Y018657
X002Y019203
X001Y019748
X002Y020293
X001Y020839
X002Y021384
X001Y021929
X002Y022474
X001Y02302
X002Y023565
T4C.052F107S55
X0045Y00125
X0045Y00775
X00175Y0316
X00575Y0316
X00375Y0316
X00375Y0381
X00575Y0381
X00175Y0381
X00775Y038
X00975Y038
X00775Y0315
X00975Y0315
X0065Y00775
X0085Y00775
X0105Y00775
X0065Y00125
X0085Y00125
X0105Y00125
X0125Y00125
X0145Y00125
X0145Y00775
X0125Y00775
X01575Y0315
X01375Y0315
X01175Y0315
X01375Y038
X01575Y038
X01175Y038
X01775Y038
X01975Y038
X01975Y0315
X01775Y0315
X0165Y00775
X0205Y00775
X0185Y00775
X0165Y00125
X0185Y00125
X0205Y00125
X0225Y00125
X0245Y00125
X0225Y00775
X0245Y00775
X02575Y0315
X02375Y0315
X02175Y0315
X02575Y038
X02375Y038
X02175Y038
X02775Y038
X02975Y038
X02775Y0315
X02975Y0315
X0305Y00775
X0265Y00775
X0285Y00775
X0265Y00125
X0285Y00125
X0305Y00125
X0325Y00125
X0355Y0015
X0355Y0035
X0355Y0055
X0355Y0075
X0325Y00775
X0355Y0095
X0355Y0115
X0355Y0135
X0355Y0155
X0355Y0175
X03375Y0315
X03575Y0315
X03175Y0315
X03375Y038
X03575Y038
X03175Y038
T5C.12F035S794
X007Y01425
X007Y0245
X03Y0245
X03Y0145
T6C.12795F035S794
X0015Y00125
X0015Y02625
M30
