*
*
G04 PADS VX.2.7 Build Number: 15549477 generated Gerber (RS-274-X) file*
G04 PC Version=2.1*
*
%IN "conn_board.pcb"*%
*
%MOIN*%
*
%FSLAX35Y35*%
*
*
*
*
G04 PC Standard Apertures*
*
*
G04 Thermal Relief Aperture macro.*
%AMTER*
1,1,$1,0,0*
1,0,$1-$2,0,0*
21,0,$3,$4,0,0,45*
21,0,$3,$4,0,0,135*
%
*
*
G04 Annular Aperture macro.*
%AMANN*
1,1,$1,0,0*
1,0,$2,0,0*
%
*
*
G04 Odd Aperture macro.*
%AMODD*
1,1,$1,0,0*
1,0,$1-0.005,0,0*
%
*
*
G04 PC Custom Aperture Macros*
*
*
*
*
*
*
G04 PC Aperture Table*
*
%ADD010C,0.012*%
%ADD012C,0.01*%
%ADD040C,0.008*%
%ADD047C,0.001*%
*
*
*
*
G04 PC Circuitry*
G04 Layer Name conn_board.pcb - circuitry*
%LPD*%
*
*
G04 PC Custom Flashes*
G04 Layer Name conn_board.pcb - flashes*
%LPD*%
*
*
G04 PC Circuitry*
G04 Layer Name conn_board.pcb - circuitry*
%LPD*%
*
G54D10*
G01X987000Y946250D02*
X3012500D01*
Y2253750*
X987000*
Y946250*
X2368000Y952250D02*
Y1172250D01*
X3013000*
X2368000Y1072250D02*
X3013000D01*
X2513000Y1172250D02*
Y1072250D01*
X3013000Y1112250D02*
X2513000D01*
X2663000Y952250D02*
Y1172250D01*
X2838000Y1112250D02*
Y1072250D01*
X3013000Y1002250D02*
X2663000D01*
X2713000D02*
Y952250D01*
X2932500Y1002250D02*
Y952250D01*
G54D12*
X2898389Y1095800D02*
Y1096334D01*
X2898777Y1097403*
X2899166Y1097938*
X2899166D02*
X2899943Y1098472D01*
X2901498*
X2902275Y1097938*
X2902275D02*
X2902664Y1097403D01*
X2903052Y1096334*
Y1095266*
X2902664Y1094197*
X2901886Y1092594*
X2898000Y1087250*
X2903441*
X2909270Y1098472D02*
X2908105Y1097938D01*
X2908105D02*
X2907327Y1096334D01*
X2906939Y1093663*
X2906939D02*
Y1092059D01*
X2907327Y1089388*
X2907327D02*
X2908105Y1087784D01*
X2909270Y1087250*
X2910048*
X2911214Y1087784*
X2911991Y1089388*
X2911991D02*
X2912380Y1092059D01*
Y1093663*
X2912380D02*
X2911991Y1096334D01*
X2911214Y1097938*
X2911214D02*
X2910048Y1098472D01*
X2909270*
X2916266Y1095800D02*
Y1096334D01*
X2916655Y1097403*
X2917043Y1097938*
X2917043D02*
X2917820Y1098472D01*
X2919375*
X2920152Y1097938*
X2920152D02*
X2920541Y1097403D01*
X2920930Y1096334*
Y1095266*
X2920541Y1094197*
X2919764Y1092594*
X2915877Y1087250*
X2921318*
X2928702Y1098472D02*
X2924816Y1090991D01*
X2930645*
X2928702Y1098472D02*
Y1087250D01*
X2941139Y1100609D02*
X2934143Y1083509D01*
X2946968Y1098472D02*
X2945802Y1097938D01*
X2945802D02*
X2945025Y1096334D01*
X2944636Y1093663*
X2944636D02*
Y1092059D01*
X2945025Y1089388*
X2945025D02*
X2945802Y1087784D01*
X2946968Y1087250*
X2947745*
X2948911Y1087784*
X2949689Y1089388*
X2949689D02*
X2950077Y1092059D01*
Y1093663*
X2950077D02*
X2949689Y1096334D01*
X2948911Y1097938*
X2948911D02*
X2947745Y1098472D01*
X2946968*
X2958627Y1094731D02*
X2958239Y1093128D01*
X2957461Y1092059*
X2956295Y1091525*
X2955907*
X2954741Y1092059*
X2953964Y1093128*
X2953575Y1094731*
Y1095266*
X2953964Y1096869*
X2954741Y1097938*
X2954741D02*
X2955907Y1098472D01*
X2956295*
X2957461Y1097938*
X2957461D02*
X2958239Y1096869D01*
X2958627Y1094731*
Y1092059*
X2958239Y1089388*
X2958239D02*
X2957461Y1087784D01*
X2956295Y1087250*
X2955518*
X2954352Y1087784*
X2953964Y1088853*
X2969120Y1100609D02*
X2962125Y1083509D01*
X2973007Y1095800D02*
Y1096334D01*
X2973395Y1097403*
X2973784Y1097938*
X2973784D02*
X2974561Y1098472D01*
X2976116*
X2976893Y1097938*
X2976893D02*
X2977282Y1097403D01*
X2977670Y1096334*
Y1095266*
X2977282Y1094197*
X2976505Y1092594*
X2972618Y1087250*
X2978059*
X2985443Y1098472D02*
X2981557Y1090991D01*
X2987386*
X2985443Y1098472D02*
Y1087250D01*
X2379818Y1083813D02*
X2378000Y1077250D01*
X2379818Y1083813D02*
X2381636Y1077250D01*
X2378682Y1079438D02*
X2380955D01*
X2383682Y1083813D02*
Y1077250D01*
Y1083813D02*
X2386864Y1077250D01*
Y1083813D02*
Y1077250D01*
X2392318Y1082250D02*
X2392091Y1082875D01*
X2391636Y1083500*
X2391182Y1083813*
X2391182D02*
X2390273D01*
X2390273D02*
X2389818Y1083500D01*
X2389364Y1082875*
X2389136Y1082250*
X2388909Y1081313*
X2388909D02*
Y1079750D01*
X2389136Y1078813*
X2389136D02*
X2389364Y1078188D01*
X2389364D02*
X2389818Y1077563D01*
X2389818D02*
X2390273Y1077250D01*
X2391182*
X2391636Y1077563*
X2391636D02*
X2392091Y1078188D01*
X2392091D02*
X2392318Y1078813D01*
X2392318D02*
Y1079750D01*
X2391182D02*
X2392318D01*
X2394364Y1083813D02*
Y1077250D01*
X2397091*
X2399136Y1083813D02*
Y1077250D01*
Y1083813D02*
X2402091D01*
X2399136Y1080688D02*
X2400955D01*
X2399136Y1077250D02*
X2402091D01*
X2407318Y1082875D02*
X2406864Y1083500D01*
X2406182Y1083813*
X2406182D02*
X2405273D01*
X2405273D02*
X2404591Y1083500D01*
X2404136Y1082875*
Y1082250*
X2404364Y1081625*
X2404591Y1081313*
X2404591D02*
X2405045Y1081000D01*
X2406409Y1080375*
X2406864Y1080063*
X2406864D02*
X2407091Y1079750D01*
X2407318Y1079125*
Y1078188*
X2407318D02*
X2406864Y1077563D01*
X2406864D02*
X2406182Y1077250D01*
X2405273*
X2404591Y1077563*
X2404591D02*
X2404136Y1078188D01*
X2416636Y1082875D02*
Y1077250D01*
X2414591Y1080063D02*
X2418682D01*
X2424818Y1085063D02*
X2420727Y1075062D01*
X2426864Y1080063D02*
X2430955D01*
X2448682Y1082563D02*
X2449136Y1082875D01*
X2449818Y1083813*
X2449818D02*
Y1077250D01*
X2378000Y1098813D02*
Y1092250D01*
Y1098813D02*
X2380955D01*
X2378000Y1095688D02*
X2379818D01*
X2383000Y1098813D02*
Y1092250D01*
Y1098813D02*
X2385045D01*
X2385045D02*
X2385727Y1098500D01*
X2385955Y1098188*
X2385955D02*
X2386182Y1097563D01*
X2386182D02*
Y1096938D01*
X2386182D02*
X2385955Y1096313D01*
X2385955D02*
X2385727Y1096000D01*
X2385045Y1095688*
X2385045D02*
X2383000D01*
X2384591D02*
X2386182Y1092250D01*
X2390045Y1098813D02*
X2388227Y1092250D01*
X2390045Y1098813D02*
X2391864Y1092250D01*
X2388909Y1094438D02*
X2391182D01*
X2397318Y1097250D02*
X2397091Y1097875D01*
X2396636Y1098500*
X2396182Y1098813*
X2396182D02*
X2395273D01*
X2395273D02*
X2394818Y1098500D01*
X2394364Y1097875*
X2394136Y1097250*
X2393909Y1096313*
X2393909D02*
Y1094750D01*
X2394136Y1093813*
X2394136D02*
X2394364Y1093188D01*
X2394364D02*
X2394818Y1092563D01*
X2394818D02*
X2395273Y1092250D01*
X2396182*
X2396636Y1092563*
X2396636D02*
X2397091Y1093188D01*
X2397091D02*
X2397318Y1093813D01*
X2400955Y1098813D02*
Y1092250D01*
X2399364Y1098813D02*
X2402545D01*
X2404818Y1092875D02*
X2404591Y1092563D01*
X2404591D02*
X2404818Y1092250D01*
X2405045Y1092563*
X2405045D02*
X2404818Y1092875D01*
X2419591Y1097875D02*
Y1092250D01*
X2417545Y1095063D02*
X2421636D01*
X2427773Y1100063D02*
X2423682Y1090062D01*
X2429818Y1095063D02*
X2433909D01*
X2378227Y1107875D02*
X2378000Y1107563D01*
X2378000D02*
X2378227Y1107250D01*
X2378455Y1107563*
X2378455D02*
X2378227Y1107875D01*
X2380500Y1113813D02*
X2383682Y1107250D01*
Y1113813D02*
X2380500Y1107250D01*
X2385727Y1113813D02*
X2388909Y1107250D01*
Y1113813D02*
X2385727Y1107250D01*
X2390955Y1113813D02*
X2394136Y1107250D01*
Y1113813D02*
X2390955Y1107250D01*
X2419136Y1112875D02*
Y1107250D01*
X2417091Y1110063D02*
X2421182D01*
X2427318Y1115063D02*
X2423227Y1105062D01*
X2429364Y1110063D02*
X2433455D01*
X2446182Y1107875D02*
X2445955Y1107563D01*
X2445955D02*
X2446182Y1107250D01*
X2446409Y1107563*
X2446409D02*
X2446182Y1107875D01*
X2449818Y1113813D02*
X2449136Y1113500D01*
X2448682Y1112563*
X2448682D02*
X2448455Y1111000D01*
Y1110063*
X2448455D02*
X2448682Y1108500D01*
X2449136Y1107563*
X2449136D02*
X2449818Y1107250D01*
X2450273*
X2450955Y1107563*
X2450955D02*
X2451409Y1108500D01*
X2451636Y1110063*
X2451636D02*
Y1111000D01*
X2451409Y1112563*
X2451409D02*
X2450955Y1113500D01*
X2450273Y1113813*
X2450273D02*
X2449818D01*
X2455045D02*
X2454364Y1113500D01*
X2453909Y1112563*
X2453909D02*
X2453682Y1111000D01*
Y1110063*
X2453682D02*
X2453909Y1108500D01*
X2454364Y1107563*
X2454364D02*
X2455045Y1107250D01*
X2455500*
X2456182Y1107563*
X2456182D02*
X2456636Y1108500D01*
X2456864Y1110063*
X2456864D02*
Y1111000D01*
X2456636Y1112563*
X2456636D02*
X2456182Y1113500D01*
X2455500Y1113813*
X2455500D02*
X2455045D01*
X2462091D02*
X2459818Y1107250D01*
X2458909Y1113813D02*
X2462091D01*
X2378227Y1122875D02*
X2378000Y1122563D01*
X2378000D02*
X2378227Y1122250D01*
X2378455Y1122563*
X2378455D02*
X2378227Y1122875D01*
X2380500Y1128813D02*
X2383682Y1122250D01*
Y1128813D02*
X2380500Y1122250D01*
X2385727Y1128813D02*
X2388909Y1122250D01*
Y1128813D02*
X2385727Y1122250D01*
X2419136Y1127875D02*
Y1122250D01*
X2417091Y1125063D02*
X2421182D01*
X2427318Y1130063D02*
X2423227Y1120062D01*
X2429364Y1125063D02*
X2433455D01*
X2446182Y1122875D02*
X2445955Y1122563D01*
X2445955D02*
X2446182Y1122250D01*
X2446409Y1122563*
X2446409D02*
X2446182Y1122875D01*
X2449818Y1128813D02*
X2449136Y1128500D01*
X2448682Y1127563*
X2448682D02*
X2448455Y1126000D01*
Y1125063*
X2448455D02*
X2448682Y1123500D01*
X2449136Y1122563*
X2449136D02*
X2449818Y1122250D01*
X2450273*
X2450955Y1122563*
X2450955D02*
X2451409Y1123500D01*
X2451636Y1125063*
X2451636D02*
Y1126000D01*
X2451409Y1127563*
X2451409D02*
X2450955Y1128500D01*
X2450273Y1128813*
X2450273D02*
X2449818D01*
X2453682Y1127563D02*
X2454136Y1127875D01*
X2454818Y1128813*
X2454818D02*
Y1122250D01*
X2378227Y1137875D02*
X2378000Y1137563D01*
X2378000D02*
X2378227Y1137250D01*
X2378455Y1137563*
X2378455D02*
X2378227Y1137875D01*
X2380500Y1143813D02*
X2383682Y1137250D01*
Y1143813D02*
X2380500Y1137250D01*
X2419136Y1142875D02*
Y1137250D01*
X2417091Y1140063D02*
X2421182D01*
X2427318Y1145063D02*
X2423227Y1135062D01*
X2429364Y1140063D02*
X2433455D01*
X2399591Y1158813D02*
Y1152250D01*
X2398000Y1158813D02*
X2401182D01*
X2404591D02*
X2404136Y1158500D01*
X2403682Y1157875*
X2403455Y1157250*
X2403227Y1156313*
X2403227D02*
Y1154750D01*
X2403455Y1153813*
X2403455D02*
X2403682Y1153188D01*
X2403682D02*
X2404136Y1152563D01*
X2404136D02*
X2404591Y1152250D01*
X2405500*
X2405955Y1152563*
X2405955D02*
X2406409Y1153188D01*
X2406409D02*
X2406636Y1153813D01*
X2406636D02*
X2406864Y1154750D01*
Y1156313*
X2406864D02*
X2406636Y1157250D01*
X2406409Y1157875*
X2405955Y1158500*
X2405500Y1158813*
X2405500D02*
X2404591D01*
X2408909D02*
Y1152250D01*
X2411636*
X2413909Y1152875D02*
X2413682Y1152563D01*
X2413682D02*
X2413909Y1152250D01*
X2414136Y1152563*
X2414136D02*
X2413909Y1152875D01*
X2421409Y1158813D02*
Y1154125D01*
X2421636Y1153188*
X2421636D02*
X2422091Y1152563D01*
X2422091D02*
X2422773Y1152250D01*
X2423227*
X2423909Y1152563*
X2423909D02*
X2424364Y1153188D01*
X2424364D02*
X2424591Y1154125D01*
Y1158813*
X2426636D02*
Y1152250D01*
Y1158813D02*
X2429818Y1152250D01*
Y1158813D02*
Y1152250D01*
X2431864Y1158813D02*
Y1152250D01*
X2434591*
X2436636Y1158813D02*
Y1152250D01*
Y1158813D02*
X2439591D01*
X2436636Y1155688D02*
X2438455D01*
X2436636Y1152250D02*
X2439591D01*
X2444818Y1157875D02*
X2444364Y1158500D01*
X2443682Y1158813*
X2443682D02*
X2442773D01*
X2442773D02*
X2442091Y1158500D01*
X2441636Y1157875*
Y1157250*
X2441864Y1156625*
X2442091Y1156313*
X2442091D02*
X2442545Y1156000D01*
X2443909Y1155375*
X2444364Y1155063*
X2444364D02*
X2444591Y1154750D01*
X2444818Y1154125*
Y1153188*
X2444818D02*
X2444364Y1152563D01*
X2444364D02*
X2443682Y1152250D01*
X2442773*
X2442091Y1152563*
X2442091D02*
X2441636Y1153188D01*
X2450045Y1157875D02*
X2449591Y1158500D01*
X2448909Y1158813*
X2448909D02*
X2448000D01*
X2448000D02*
X2447318Y1158500D01*
X2446864Y1157875*
Y1157250*
X2447091Y1156625*
X2447318Y1156313*
X2447318D02*
X2447773Y1156000D01*
X2449136Y1155375*
X2449591Y1155063*
X2449591D02*
X2449818Y1154750D01*
X2450045Y1154125*
Y1153188*
X2450045D02*
X2449591Y1152563D01*
X2449591D02*
X2448909Y1152250D01*
X2448000*
X2447318Y1152563*
X2447318D02*
X2446864Y1153188D01*
X2457318Y1158813D02*
Y1152250D01*
Y1158813D02*
X2460500Y1152250D01*
Y1158813D02*
Y1152250D01*
X2463909Y1158813D02*
X2463455Y1158500D01*
X2463000Y1157875*
X2462773Y1157250*
X2462545Y1156313*
X2462545D02*
Y1154750D01*
X2462773Y1153813*
X2462773D02*
X2463000Y1153188D01*
X2463000D02*
X2463455Y1152563D01*
X2463455D02*
X2463909Y1152250D01*
X2464818*
X2465273Y1152563*
X2465273D02*
X2465727Y1153188D01*
X2465727D02*
X2465955Y1153813D01*
X2465955D02*
X2466182Y1154750D01*
Y1156313*
X2466182D02*
X2465955Y1157250D01*
X2465727Y1157875*
X2465273Y1158500*
X2464818Y1158813*
X2464818D02*
X2463909D01*
X2469818D02*
Y1152250D01*
X2468227Y1158813D02*
X2471409D01*
X2473455D02*
Y1152250D01*
Y1158813D02*
X2476409D01*
X2473455Y1155688D02*
X2475273D01*
X2473455Y1152250D02*
X2476409D01*
X2478455Y1158813D02*
Y1152250D01*
Y1158813D02*
X2480045D01*
X2480045D02*
X2480727Y1158500D01*
X2481182Y1157875*
X2481409Y1157250*
X2481636Y1156313*
X2481636D02*
Y1154750D01*
X2481409Y1153813*
X2481409D02*
X2481182Y1153188D01*
X2481182D02*
X2480727Y1152563D01*
X2480727D02*
X2480045Y1152250D01*
X2478455*
X2394591Y1168813D02*
Y1162250D01*
X2393000Y1168813D02*
X2396182D01*
X2399591D02*
X2399136Y1168500D01*
X2398682Y1167875*
X2398455Y1167250*
X2398227Y1166313*
X2398227D02*
Y1164750D01*
X2398455Y1163813*
X2398455D02*
X2398682Y1163188D01*
X2398682D02*
X2399136Y1162563D01*
X2399136D02*
X2399591Y1162250D01*
X2400500*
X2400955Y1162563*
X2400955D02*
X2401409Y1163188D01*
X2401409D02*
X2401636Y1163813D01*
X2401636D02*
X2401864Y1164750D01*
Y1166313*
X2401864D02*
X2401636Y1167250D01*
X2401409Y1167875*
X2400955Y1168500*
X2400500Y1168813*
X2400500D02*
X2399591D01*
X2403909D02*
Y1162250D01*
X2406636*
X2408909Y1162875D02*
X2408682Y1162563D01*
X2408682D02*
X2408909Y1162250D01*
X2409136Y1162563*
X2409136D02*
X2408909Y1162875D01*
X2419591Y1167875D02*
X2419136Y1168500D01*
X2418455Y1168813*
X2418455D02*
X2417545D01*
X2417545D02*
X2416864Y1168500D01*
X2416409Y1167875*
Y1167250*
X2416636Y1166625*
X2416864Y1166313*
X2416864D02*
X2417318Y1166000D01*
X2418682Y1165375*
X2419136Y1165063*
X2419136D02*
X2419364Y1164750D01*
X2419591Y1164125*
Y1163188*
X2419591D02*
X2419136Y1162563D01*
X2419136D02*
X2418455Y1162250D01*
X2417545*
X2416864Y1162563*
X2416864D02*
X2416409Y1163188D01*
X2421636Y1168813D02*
Y1162250D01*
X2428909Y1168813D02*
Y1162250D01*
Y1168813D02*
X2432091Y1162250D01*
Y1168813D02*
Y1162250D01*
X2435500Y1168813D02*
X2435045Y1168500D01*
X2434591Y1167875*
X2434364Y1167250*
X2434136Y1166313*
X2434136D02*
Y1164750D01*
X2434364Y1163813*
X2434364D02*
X2434591Y1163188D01*
X2434591D02*
X2435045Y1162563D01*
X2435045D02*
X2435500Y1162250D01*
X2436409*
X2436864Y1162563*
X2436864D02*
X2437318Y1163188D01*
X2437318D02*
X2437545Y1163813D01*
X2437545D02*
X2437773Y1164750D01*
Y1166313*
X2437773D02*
X2437545Y1167250D01*
X2437318Y1167875*
X2436864Y1168500*
X2436409Y1168813*
X2436409D02*
X2435500D01*
X2439818D02*
Y1162250D01*
Y1168813D02*
X2443000Y1162250D01*
Y1168813D02*
Y1162250D01*
X2450273Y1168813D02*
Y1162250D01*
X2452318Y1168813D02*
Y1162250D01*
Y1168813D02*
X2455500Y1162250D01*
Y1168813D02*
Y1162250D01*
X2457545Y1168813D02*
Y1162250D01*
Y1168813D02*
X2459136D01*
X2459136D02*
X2459818Y1168500D01*
X2460273Y1167875*
X2460500Y1167250*
X2460727Y1166313*
X2460727D02*
Y1164750D01*
X2460500Y1163813*
X2460500D02*
X2460273Y1163188D01*
X2460273D02*
X2459818Y1162563D01*
X2459818D02*
X2459136Y1162250D01*
X2457545*
X2462773Y1168813D02*
Y1162250D01*
X2466182Y1168813D02*
X2465727Y1168500D01*
X2465273Y1167875*
X2465045Y1167250*
X2464818Y1166313*
X2464818D02*
Y1164750D01*
X2465045Y1163813*
X2465045D02*
X2465273Y1163188D01*
X2465273D02*
X2465727Y1162563D01*
X2465727D02*
X2466182Y1162250D01*
X2467091*
X2467545Y1162563*
X2467545D02*
X2468000Y1163188D01*
X2468000D02*
X2468227Y1163813D01*
X2468227D02*
X2468455Y1164750D01*
Y1166313*
X2468455D02*
X2468227Y1167250D01*
X2468000Y1167875*
X2467545Y1168500*
X2467091Y1168813*
X2467091D02*
X2466182D01*
X2466864Y1163500D02*
X2468227Y1161625D01*
X2470500Y1168813D02*
Y1164125D01*
X2470727Y1163188*
X2470727D02*
X2471182Y1162563D01*
X2471182D02*
X2471864Y1162250D01*
X2472318*
X2473000Y1162563*
X2473000D02*
X2473455Y1163188D01*
X2473455D02*
X2473682Y1164125D01*
Y1168813*
X2475727D02*
Y1162250D01*
Y1168813D02*
X2478682D01*
X2475727Y1165688D02*
X2477545D01*
X2475727Y1162250D02*
X2478682D01*
X2480727Y1168813D02*
Y1162250D01*
Y1168813D02*
X2483682D01*
X2480727Y1165688D02*
X2482545D01*
X2480727Y1162250D02*
X2483682D01*
X2488909Y1167875D02*
X2488455Y1168500D01*
X2487773Y1168813*
X2487773D02*
X2486864D01*
X2486864D02*
X2486182Y1168500D01*
X2485727Y1167875*
Y1167250*
X2485955Y1166625*
X2486182Y1166313*
X2486182D02*
X2486636Y1166000D01*
X2488000Y1165375*
X2488455Y1165063*
X2488455D02*
X2488682Y1164750D01*
X2488909Y1164125*
Y1163188*
X2488909D02*
X2488455Y1162563D01*
X2488455D02*
X2487773Y1162250D01*
X2486864*
X2486182Y1162563*
X2486182D02*
X2485727Y1163188D01*
X2518000Y1105453D02*
Y1097250D01*
Y1105453D02*
X2521693D01*
X2518000Y1101547D02*
X2520273D01*
X2518000Y1097250D02*
X2521693D01*
X2528511Y1103500D02*
X2528227Y1104281D01*
X2527659Y1105063*
X2527659D02*
X2527091Y1105453D01*
X2525955*
X2525386Y1105063*
X2525386D02*
X2524818Y1104281D01*
X2524534Y1103500*
X2524250Y1102328*
Y1100375*
X2524534Y1099203*
X2524818Y1098422*
X2525386Y1097641*
X2525955Y1097250*
X2527091*
X2527659Y1097641*
X2528227Y1098422*
X2528511Y1099203*
X2531068Y1105453D02*
Y1097250D01*
X2535045Y1105453D02*
Y1097250D01*
X2531068Y1101547D02*
X2535045D01*
X2537886Y1098031D02*
X2537602Y1097641D01*
X2537886Y1097250*
X2538170Y1097641*
X2537886Y1098031*
X2545841Y1107016D02*
X2540727Y1094516D01*
X2552375Y1104281D02*
X2551807Y1105063D01*
X2551807D02*
X2550955Y1105453D01*
X2549818*
X2548966Y1105063*
X2548966D02*
X2548398Y1104281D01*
Y1103500*
X2548682Y1102719*
X2548966Y1102328*
X2549534Y1101938*
X2549534D02*
X2551239Y1101156D01*
X2551807Y1100766*
X2552091Y1100375*
X2552375Y1099594*
Y1098422*
X2551807Y1097641*
X2550955Y1097250*
X2549818*
X2548966Y1097641*
X2548398Y1098422*
X2559193Y1103500D02*
X2558909Y1104281D01*
X2558341Y1105063*
X2558341D02*
X2557773Y1105453D01*
X2556636*
X2556068Y1105063*
X2556068D02*
X2555500Y1104281D01*
X2555216Y1103500*
X2554932Y1102328*
Y1100375*
X2555216Y1099203*
X2555500Y1098422*
X2556068Y1097641*
X2556636Y1097250*
X2557773*
X2558341Y1097641*
X2558909Y1098422*
X2559193Y1099203*
X2564023Y1105453D02*
X2561750Y1097250D01*
X2564023Y1105453D02*
X2566295Y1097250D01*
X2562602Y1099984D02*
X2565443D01*
X2568852Y1105453D02*
Y1097250D01*
X2572261*
X2574818Y1105453D02*
Y1097250D01*
Y1105453D02*
X2578511D01*
X2574818Y1101547D02*
X2577091D01*
X2574818Y1097250D02*
X2578511D01*
X2843000Y1105453D02*
Y1097250D01*
Y1105453D02*
X2844989D01*
X2845841Y1105063*
X2845841D02*
X2846409Y1104281D01*
X2846693Y1103500*
X2846977Y1102328*
Y1100375*
X2846693Y1099203*
X2846409Y1098422*
X2845841Y1097641*
X2844989Y1097250*
X2843000*
X2851807Y1105453D02*
X2849534Y1097250D01*
X2851807Y1105453D02*
X2854080Y1097250D01*
X2850386Y1099984D02*
X2853227D01*
X2858625Y1105453D02*
Y1097250D01*
X2856636Y1105453D02*
X2860614D01*
X2863170D02*
Y1097250D01*
Y1105453D02*
X2866864D01*
X2863170Y1101547D02*
X2865443D01*
X2863170Y1097250D02*
X2866864D01*
X2728609Y1098472D02*
X2725500Y1087250D01*
X2728609Y1098472D02*
X2731718Y1087250D01*
X2726666Y1090991D02*
X2730552D01*
X2735605Y1088319D02*
X2735216Y1087784D01*
X2735605Y1087250*
X2735993Y1087784*
X2735605Y1088319*
X2742600Y1098472D02*
X2739491Y1087250D01*
X2742600Y1098472D02*
X2745709Y1087250D01*
X2740657Y1090991D02*
X2744543D01*
X2749207Y1098472D02*
Y1087250D01*
Y1098472D02*
X2754648Y1087250D01*
Y1098472D02*
Y1087250D01*
X2758145Y1098472D02*
Y1087250D01*
X2767084Y1096869D02*
X2766307Y1097938D01*
X2766307D02*
X2765141Y1098472D01*
X2763586*
X2762420Y1097938*
X2762420D02*
X2761643Y1096869D01*
Y1095800*
X2762032Y1094731*
X2762420Y1094197*
X2763198Y1093663*
X2763198D02*
X2765530Y1092594D01*
X2766307Y1092059*
X2766695Y1091525*
X2767084Y1090456*
Y1088853*
X2766307Y1087784*
X2765141Y1087250*
X2763586*
X2762420Y1087784*
X2761643Y1088853*
X2772914Y1098472D02*
X2772136Y1097938D01*
X2772136D02*
X2771359Y1096869D01*
X2770970Y1095800*
X2770582Y1094197*
Y1091525*
X2770970Y1089922*
X2771359Y1088853*
X2772136Y1087784*
X2772914Y1087250*
X2774468*
X2775245Y1087784*
X2776023Y1088853*
X2776411Y1089922*
X2776800Y1091525*
Y1094197*
X2776411Y1095800*
X2776023Y1096869*
X2775245Y1097938*
X2775245D02*
X2774468Y1098472D01*
X2772914*
X2780298D02*
X2783407Y1087250D01*
X2786516Y1098472D02*
X2783407Y1087250D01*
X2668000Y1105453D02*
Y1097250D01*
Y1105453D02*
X2670557D01*
X2671409Y1105063*
X2671409D02*
X2671693Y1104672D01*
X2671977Y1103891*
Y1103109*
X2671693Y1102328*
X2671409Y1101938*
X2671409D02*
X2670557Y1101547D01*
X2668000D02*
X2670557D01*
X2671409Y1101156*
X2671693Y1100766*
X2671977Y1099984*
Y1098813*
X2671977D02*
X2671693Y1098031D01*
X2671409Y1097641*
X2670557Y1097250*
X2668000*
X2674534Y1105453D02*
X2676807Y1101547D01*
Y1097250*
X2679080Y1105453D02*
X2676807Y1101547D01*
X2669989Y1065453D02*
Y1057250D01*
X2668000Y1065453D02*
X2671977D01*
X2674534D02*
Y1057250D01*
X2679080Y1065453D02*
Y1057250D01*
X2677091Y1065453D02*
X2681068D01*
X2683625D02*
Y1057250D01*
Y1065453D02*
X2686182D01*
X2687034Y1065063*
X2687034D02*
X2687318Y1064672D01*
X2687602Y1063891*
Y1063109*
X2687318Y1062328*
X2687034Y1061938*
X2687034D02*
X2686182Y1061547D01*
X2683625*
X2685614D02*
X2687602Y1057250D01*
X2690159Y1065453D02*
Y1057250D01*
Y1065453D02*
X2693852D01*
X2690159Y1061547D02*
X2692432D01*
X2690159Y1057250D02*
X2693852D01*
X2701523Y1067016D02*
X2696409Y1054516D01*
X2706068Y1065453D02*
Y1057250D01*
X2704080Y1065453D02*
X2708057D01*
X2710614D02*
Y1057250D01*
X2715159Y1065453D02*
Y1057250D01*
X2713170Y1065453D02*
X2717148D01*
X2719705D02*
Y1057250D01*
X2723114*
X2725670Y1065453D02*
Y1057250D01*
Y1065453D02*
X2729364D01*
X2725670Y1061547D02*
X2727943D01*
X2725670Y1057250D02*
X2729364D01*
X2668000Y1035453D02*
Y1027250D01*
Y1035453D02*
X2669989D01*
X2670841Y1035063*
X2670841D02*
X2671409Y1034281D01*
X2671693Y1033500*
X2671977Y1032328*
Y1030375*
X2671693Y1029203*
X2671409Y1028422*
X2670841Y1027641*
X2669989Y1027250*
X2668000*
X2676239Y1035453D02*
X2675670Y1035063D01*
X2675670D02*
X2675102Y1034281D01*
X2674818Y1033500*
X2674534Y1032328*
Y1030375*
X2674818Y1029203*
X2675102Y1028422*
X2675670Y1027641*
X2676239Y1027250*
X2677375*
X2677943Y1027641*
X2678511Y1028422*
X2678795Y1029203*
X2679080Y1030375*
Y1032328*
X2678795Y1033500*
X2678511Y1034281*
X2677943Y1035063*
X2677943D02*
X2677375Y1035453D01*
X2676239*
X2685898Y1033500D02*
X2685614Y1034281D01*
X2685045Y1035063*
X2685045D02*
X2684477Y1035453D01*
X2683341*
X2682773Y1035063*
X2682773D02*
X2682205Y1034281D01*
X2681920Y1033500*
X2681636Y1032328*
Y1030375*
X2681920Y1029203*
X2682205Y1028422*
X2682773Y1027641*
X2683341Y1027250*
X2684477*
X2685045Y1027641*
X2685614Y1028422*
X2685898Y1029203*
X2688739Y1028031D02*
X2688455Y1027641D01*
X2688739Y1027250*
X2689023Y1027641*
X2688739Y1028031*
X2815830Y1042300D02*
X2815441Y1043369D01*
X2814664Y1044438*
X2814664D02*
X2813886Y1044972D01*
X2812332*
X2811555Y1044438*
X2811555D02*
X2810777Y1043369D01*
X2810389Y1042300*
X2810000Y1040697*
Y1038025*
X2810389Y1036422*
X2810777Y1035353*
X2811555Y1034284*
X2812332Y1033750*
X2813886*
X2814664Y1034284*
X2815441Y1035353*
X2815830Y1036422*
X2821659Y1044972D02*
X2820882Y1044438D01*
X2820882D02*
X2820105Y1043369D01*
X2819716Y1042300*
X2819327Y1040697*
Y1038025*
X2819716Y1036422*
X2820105Y1035353*
X2820882Y1034284*
X2821659Y1033750*
X2823214*
X2823991Y1034284*
X2824768Y1035353*
X2825157Y1036422*
X2825545Y1038025*
Y1040697*
X2825157Y1042300*
X2824768Y1043369*
X2823991Y1044438*
X2823991D02*
X2823214Y1044972D01*
X2821659*
X2829043D02*
Y1033750D01*
Y1044972D02*
X2834484Y1033750D01*
Y1044972D02*
Y1033750D01*
X2837982Y1044972D02*
Y1033750D01*
Y1044972D02*
X2843423Y1033750D01*
Y1044972D02*
Y1033750D01*
X2846920Y1044972D02*
Y1033750D01*
Y1044972D02*
X2851973D01*
X2846920Y1039628D02*
X2850030D01*
X2846920Y1033750D02*
X2851973D01*
X2861300Y1042300D02*
X2860911Y1043369D01*
X2860134Y1044438*
X2860134D02*
X2859357Y1044972D01*
X2857802*
X2857025Y1044438*
X2857025D02*
X2856248Y1043369D01*
X2855859Y1042300*
X2855470Y1040697*
Y1038025*
X2855859Y1036422*
X2856248Y1035353*
X2857025Y1034284*
X2857802Y1033750*
X2859357*
X2860134Y1034284*
X2860911Y1035353*
X2861300Y1036422*
X2867518Y1044972D02*
Y1033750D01*
X2864798Y1044972D02*
X2870239D01*
X2873736D02*
Y1033750D01*
X2879566Y1044972D02*
X2878789Y1044438D01*
X2878789D02*
X2878011Y1043369D01*
X2877623Y1042300*
X2877234Y1040697*
Y1038025*
X2877623Y1036422*
X2878011Y1035353*
X2878789Y1034284*
X2879566Y1033750*
X2881120*
X2881898Y1034284*
X2882675Y1035353*
X2883064Y1036422*
X2883452Y1038025*
Y1040697*
X2883064Y1042300*
X2882675Y1043369*
X2881898Y1044438*
X2881898D02*
X2881120Y1044972D01*
X2879566*
X2886950D02*
Y1033750D01*
Y1044972D02*
X2892391Y1033750D01*
Y1044972D02*
Y1033750D01*
X2901330Y1043369D02*
X2900552Y1044438D01*
X2900552D02*
X2899386Y1044972D01*
X2897832*
X2896666Y1044438*
X2896666D02*
X2895889Y1043369D01*
Y1042300*
X2896277Y1041231*
X2896666Y1040697*
X2897443Y1040163*
X2897443D02*
X2899775Y1039094D01*
X2900552Y1038559*
X2900941Y1038025*
X2901330Y1036956*
Y1035353*
X2900552Y1034284*
X2899386Y1033750*
X2897832*
X2896666Y1034284*
X2895889Y1035353*
X2913766Y1044972D02*
Y1033750D01*
Y1044972D02*
X2917264D01*
X2918430Y1044438*
X2918430D02*
X2918818Y1043903D01*
X2919207Y1042834*
Y1041766*
X2918818Y1040697*
X2918430Y1040163*
X2918430D02*
X2917264Y1039628D01*
X2913766D02*
X2917264D01*
X2918430Y1039094*
X2918818Y1038559*
X2919207Y1037491*
Y1035888*
X2919207D02*
X2918818Y1034819D01*
X2918430Y1034284*
X2917264Y1033750*
X2913766*
X2925036Y1044972D02*
X2924259Y1044438D01*
X2924259D02*
X2923482Y1043369D01*
X2923093Y1042300*
X2922705Y1040697*
Y1038025*
X2923093Y1036422*
X2923482Y1035353*
X2924259Y1034284*
X2925036Y1033750*
X2926591*
X2927368Y1034284*
X2928145Y1035353*
X2928534Y1036422*
X2928923Y1038025*
Y1040697*
X2928534Y1042300*
X2928145Y1043369*
X2927368Y1044438*
X2927368D02*
X2926591Y1044972D01*
X2925036*
X2935530D02*
X2932420Y1033750D01*
X2935530Y1044972D02*
X2938639Y1033750D01*
X2933586Y1037491D02*
X2937473D01*
X2942136Y1044972D02*
Y1033750D01*
Y1044972D02*
X2945634D01*
X2946800Y1044438*
X2946800D02*
X2947189Y1043903D01*
X2947577Y1042834*
Y1041766*
X2947189Y1040697*
X2946800Y1040163*
X2946800D02*
X2945634Y1039628D01*
X2942136*
X2944857D02*
X2947577Y1033750D01*
X2951075Y1044972D02*
Y1033750D01*
Y1044972D02*
X2953795D01*
X2954961Y1044438*
X2954961D02*
X2955739Y1043369D01*
X2956127Y1042300*
X2956516Y1040697*
Y1038025*
X2956127Y1036422*
X2955739Y1035353*
X2954961Y1034284*
X2953795Y1033750*
X2951075*
X2753000Y998813D02*
Y992250D01*
Y998813D02*
X2756182Y992250D01*
Y998813D02*
Y992250D01*
X2758227Y998813D02*
Y994125D01*
X2758455Y993188*
X2758455D02*
X2758909Y992563D01*
X2758909D02*
X2759591Y992250D01*
X2760045*
X2760727Y992563*
X2760727D02*
X2761182Y993188D01*
X2761182D02*
X2761409Y994125D01*
Y998813*
X2763455D02*
Y992250D01*
Y998813D02*
X2765273Y992250D01*
X2767091Y998813D02*
X2765273Y992250D01*
X2767091Y998813D02*
Y992250D01*
X2769136Y998813D02*
Y992250D01*
Y998813D02*
X2772091D01*
X2769136Y995688D02*
X2770955D01*
X2769136Y992250D02*
X2772091D01*
X2774136Y998813D02*
Y992250D01*
Y998813D02*
X2776182D01*
X2776182D02*
X2776864Y998500D01*
X2777091Y998188*
X2777091D02*
X2777318Y997563D01*
X2777318D02*
Y996938D01*
X2777318D02*
X2777091Y996313D01*
X2777091D02*
X2776864Y996000D01*
X2776182Y995688*
X2776182D02*
X2774136D01*
X2775727D02*
X2777318Y992250D01*
X2780727Y998813D02*
X2780273Y998500D01*
X2779818Y997875*
X2779591Y997250*
X2779364Y996313*
X2779364D02*
Y994750D01*
X2779591Y993813*
X2779591D02*
X2779818Y993188D01*
X2779818D02*
X2780273Y992563D01*
X2780273D02*
X2780727Y992250D01*
X2781636*
X2782091Y992563*
X2782091D02*
X2782545Y993188D01*
X2782545D02*
X2782773Y993813D01*
X2782773D02*
X2783000Y994750D01*
Y996313*
X2783000D02*
X2782773Y997250D01*
X2782545Y997875*
X2782091Y998500*
X2781636Y998813*
X2781636D02*
X2780727D01*
X2790273D02*
Y992250D01*
Y998813D02*
X2791864D01*
X2791864D02*
X2792545Y998500D01*
X2793000Y997875*
X2793227Y997250*
X2793455Y996313*
X2793455D02*
Y994750D01*
X2793227Y993813*
X2793227D02*
X2793000Y993188D01*
X2793000D02*
X2792545Y992563D01*
X2792545D02*
X2791864Y992250D01*
X2790273*
X2795500Y998813D02*
Y992250D01*
Y998813D02*
X2798455D01*
X2795500Y995688D02*
X2797318D01*
X2795500Y992250D02*
X2798455D01*
X2805727Y998813D02*
Y992250D01*
Y998813D02*
X2807318D01*
X2807318D02*
X2808000Y998500D01*
X2808455Y997875*
X2808682Y997250*
X2808909Y996313*
X2808909D02*
Y994750D01*
X2808682Y993813*
X2808682D02*
X2808455Y993188D01*
X2808455D02*
X2808000Y992563D01*
X2808000D02*
X2807318Y992250D01*
X2805727*
X2810955Y998813D02*
Y992250D01*
Y998813D02*
X2813909D01*
X2810955Y995688D02*
X2812773D01*
X2810955Y992250D02*
X2813909D01*
X2819136Y997875D02*
X2818682Y998500D01*
X2818000Y998813*
X2818000D02*
X2817091D01*
X2817091D02*
X2816409Y998500D01*
X2815955Y997875*
Y997250*
X2816182Y996625*
X2816409Y996313*
X2816409D02*
X2816864Y996000D01*
X2818227Y995375*
X2818682Y995063*
X2818682D02*
X2818909Y994750D01*
X2819136Y994125*
Y993188*
X2819136D02*
X2818682Y992563D01*
X2818682D02*
X2818000Y992250D01*
X2817091*
X2816409Y992563*
X2816409D02*
X2815955Y993188D01*
X2824364Y997875D02*
X2823909Y998500D01*
X2823227Y998813*
X2823227D02*
X2822318D01*
X2822318D02*
X2821636Y998500D01*
X2821182Y997875*
Y997250*
X2821409Y996625*
X2821636Y996313*
X2821636D02*
X2822091Y996000D01*
X2823455Y995375*
X2823909Y995063*
X2823909D02*
X2824136Y994750D01*
X2824364Y994125*
Y993188*
X2824364D02*
X2823909Y992563D01*
X2823909D02*
X2823227Y992250D01*
X2822318*
X2821636Y992563*
X2821636D02*
X2821182Y993188D01*
X2826409Y998813D02*
Y992250D01*
X2828455Y998813D02*
Y992250D01*
Y998813D02*
X2831636Y992250D01*
Y998813D02*
Y992250D01*
X2837773Y1000063D02*
X2833682Y990062D01*
X2839818Y998813D02*
Y992250D01*
Y998813D02*
X2841409D01*
X2841409D02*
X2842091Y998500D01*
X2842545Y997875*
X2842773Y997250*
X2843000Y996313*
X2843000D02*
Y994750D01*
X2842773Y993813*
X2842773D02*
X2842545Y993188D01*
X2842545D02*
X2842091Y992563D01*
X2842091D02*
X2841409Y992250D01*
X2839818*
X2845045Y998813D02*
Y992250D01*
Y998813D02*
X2847091D01*
X2847091D02*
X2847773Y998500D01*
X2848000Y998188*
X2848000D02*
X2848227Y997563D01*
X2848227D02*
Y996938D01*
X2848227D02*
X2848000Y996313D01*
X2848000D02*
X2847773Y996000D01*
X2847091Y995688*
X2847091D02*
X2845045D01*
X2846636D02*
X2848227Y992250D01*
X2852091Y998813D02*
X2850273Y992250D01*
X2852091Y998813D02*
X2853909Y992250D01*
X2850955Y994438D02*
X2853227D01*
X2855955Y998813D02*
X2857091Y992250D01*
X2858227Y998813D02*
X2857091Y992250D01*
X2858227Y998813D02*
X2859364Y992250D01*
X2860500Y998813D02*
X2859364Y992250D01*
X2862545Y998813D02*
Y992250D01*
X2864591Y998813D02*
Y992250D01*
Y998813D02*
X2867773Y992250D01*
Y998813D02*
Y992250D01*
X2873227Y997250D02*
X2873000Y997875D01*
X2872545Y998500*
X2872091Y998813*
X2872091D02*
X2871182D01*
X2871182D02*
X2870727Y998500D01*
X2870273Y997875*
X2870045Y997250*
X2869818Y996313*
X2869818D02*
Y994750D01*
X2870045Y993813*
X2870045D02*
X2870273Y993188D01*
X2870273D02*
X2870727Y992563D01*
X2870727D02*
X2871182Y992250D01*
X2872091*
X2872545Y992563*
X2872545D02*
X2873000Y993188D01*
X2873000D02*
X2873227Y993813D01*
X2873227D02*
Y994750D01*
X2872091D02*
X2873227D01*
X2880500Y998813D02*
Y992250D01*
Y998813D02*
X2883682Y992250D01*
Y998813D02*
Y992250D01*
X2885727Y998813D02*
Y994125D01*
X2885955Y993188*
X2885955D02*
X2886409Y992563D01*
X2886409D02*
X2887091Y992250D01*
X2887545*
X2888227Y992563*
X2888227D02*
X2888682Y993188D01*
X2888682D02*
X2888909Y994125D01*
Y998813*
X2890955D02*
Y992250D01*
Y998813D02*
X2892773Y992250D01*
X2894591Y998813D02*
X2892773Y992250D01*
X2894591Y998813D02*
Y992250D01*
X2896636Y998813D02*
Y992250D01*
Y998813D02*
X2898682D01*
X2898682D02*
X2899364Y998500D01*
X2899591Y998188*
X2899591D02*
X2899818Y997563D01*
X2899818D02*
Y996938D01*
X2899818D02*
X2899591Y996313D01*
X2899591D02*
X2899364Y996000D01*
X2898682Y995688*
X2896636D02*
X2898682D01*
X2898682D02*
X2899364Y995375D01*
X2899591Y995063*
X2899591D02*
X2899818Y994438D01*
X2899818D02*
Y993500D01*
X2899591Y992875*
X2899364Y992563*
X2899364D02*
X2898682Y992250D01*
X2896636*
X2901864Y998813D02*
Y992250D01*
Y998813D02*
X2904818D01*
X2901864Y995688D02*
X2903682D01*
X2901864Y992250D02*
X2904818D01*
X2906864Y998813D02*
Y992250D01*
Y998813D02*
X2908909D01*
X2908909D02*
X2909591Y998500D01*
X2909818Y998188*
X2909818D02*
X2910045Y997563D01*
X2910045D02*
Y996938D01*
X2910045D02*
X2909818Y996313D01*
X2909818D02*
X2909591Y996000D01*
X2908909Y995688*
X2908909D02*
X2906864D01*
X2908455D02*
X2910045Y992250D01*
X2668000Y998813D02*
Y992250D01*
Y998813D02*
X2670955D01*
X2668000Y995688D02*
X2669818D01*
X2674364Y998813D02*
X2673909Y998500D01*
X2673455Y997875*
X2673227Y997250*
X2673000Y996313*
X2673000D02*
Y994750D01*
X2673227Y993813*
X2673227D02*
X2673455Y993188D01*
X2673455D02*
X2673909Y992563D01*
X2673909D02*
X2674364Y992250D01*
X2675273*
X2675727Y992563*
X2675727D02*
X2676182Y993188D01*
X2676182D02*
X2676409Y993813D01*
X2676409D02*
X2676636Y994750D01*
Y996313*
X2676636D02*
X2676409Y997250D01*
X2676182Y997875*
X2675727Y998500*
X2675273Y998813*
X2675273D02*
X2674364D01*
X2678682D02*
Y992250D01*
Y998813D02*
X2680727D01*
X2680727D02*
X2681409Y998500D01*
X2681636Y998188*
X2681636D02*
X2681864Y997563D01*
X2681864D02*
Y996938D01*
X2681864D02*
X2681636Y996313D01*
X2681636D02*
X2681409Y996000D01*
X2680727Y995688*
X2680727D02*
X2678682D01*
X2680273D02*
X2681864Y992250D01*
X2683909Y998813D02*
Y992250D01*
Y998813D02*
X2685727Y992250D01*
X2687545Y998813D02*
X2685727Y992250D01*
X2687545Y998813D02*
Y992250D01*
X2691409Y998813D02*
X2689591Y992250D01*
X2691409Y998813D02*
X2693227Y992250D01*
X2690273Y994438D02*
X2692545D01*
X2696864Y998813D02*
Y992250D01*
X2695273Y998813D02*
X2698455D01*
X2671182Y987875D02*
X2670727Y988500D01*
X2670045Y988813*
X2670045D02*
X2669136D01*
X2669136D02*
X2668455Y988500D01*
X2668000Y987875*
Y987250*
X2668227Y986625*
X2668455Y986313*
X2668455D02*
X2668909Y986000D01*
X2670273Y985375*
X2670727Y985063*
X2670727D02*
X2670955Y984750D01*
X2671182Y984125*
Y983188*
X2671182D02*
X2670727Y982563D01*
X2670727D02*
X2670045Y982250D01*
X2669136*
X2668455Y982563*
X2668455D02*
X2668000Y983188D01*
X2673227Y988813D02*
Y982250D01*
X2678455Y988813D02*
X2675273Y982250D01*
Y988813D02*
X2678455D01*
X2675273Y982250D02*
X2678455D01*
X2680500Y988813D02*
Y982250D01*
Y988813D02*
X2683455D01*
X2680500Y985688D02*
X2682318D01*
X2680500Y982250D02*
X2683455D01*
X2947500Y992813D02*
Y986250D01*
Y992813D02*
X2950455D01*
X2947500Y989688D02*
X2949318D01*
X2952500Y992813D02*
Y986250D01*
Y992813D02*
X2955455D01*
X2952500Y989688D02*
X2954318D01*
X2952500Y986250D02*
X2955455D01*
X2957500Y992813D02*
Y988125D01*
X2957727Y987188*
X2957727D02*
X2958182Y986563D01*
X2958182D02*
X2958864Y986250D01*
X2959318*
X2960000Y986563*
X2960000D02*
X2960455Y987188D01*
X2960455D02*
X2960682Y988125D01*
Y992813*
X2962727D02*
Y986250D01*
X2964773Y992813D02*
Y986250D01*
X2967500*
X2969545Y992813D02*
Y986250D01*
X2972273*
X2974318Y992813D02*
Y986250D01*
Y992813D02*
X2977273D01*
X2974318Y989688D02*
X2976136D01*
X2974318Y986250D02*
X2977273D01*
X2983409Y994063D02*
X2979318Y984062D01*
X2988636Y991875D02*
X2988182Y992500D01*
X2987500Y992813*
X2987500D02*
X2986591D01*
X2986591D02*
X2985909Y992500D01*
X2985455Y991875*
Y991250*
X2985682Y990625*
X2985909Y990313*
X2985909D02*
X2986364Y990000D01*
X2987727Y989375*
X2988182Y989063*
X2988182D02*
X2988409Y988750D01*
X2988636Y988125*
Y987188*
X2988636D02*
X2988182Y986563D01*
X2988182D02*
X2987500Y986250D01*
X2986591*
X2985909Y986563*
X2985909D02*
X2985455Y987188D01*
X2990682Y992813D02*
Y986250D01*
X2993864Y992813D02*
Y986250D01*
X2990682Y989688D02*
X2993864D01*
X2995909Y992813D02*
Y986250D01*
Y992813D02*
X2998864D01*
X2995909Y989688D02*
X2997727D01*
X2995909Y986250D02*
X2998864D01*
X3000909Y992813D02*
Y986250D01*
Y992813D02*
X3003864D01*
X3000909Y989688D02*
X3002727D01*
X3000909Y986250D02*
X3003864D01*
X3007500Y992813D02*
Y986250D01*
X3005909Y992813D02*
X3009091D01*
X2970500Y981313D02*
Y974750D01*
Y981313D02*
X2972091D01*
X2972091D02*
X2972773Y981000D01*
X2973227Y980375*
X2973455Y979750*
X2973682Y978813*
X2973682D02*
Y977250D01*
X2973455Y976313*
X2973455D02*
X2973227Y975688D01*
X2973227D02*
X2972773Y975063D01*
X2972773D02*
X2972091Y974750D01*
X2970500*
X2975727Y981313D02*
Y974750D01*
Y981313D02*
X2978682D01*
X2975727Y978188D02*
X2977545D01*
X2975727Y974750D02*
X2978682D01*
X2971864Y971313D02*
X2971409Y971000D01*
X2970955Y970375*
X2970727Y969750*
X2970500Y968813*
X2970500D02*
Y967250D01*
X2970727Y966313*
X2970727D02*
X2970955Y965688D01*
X2970955D02*
X2971409Y965063D01*
X2971409D02*
X2971864Y964750D01*
X2972773*
X2973227Y965063*
X2973227D02*
X2973682Y965688D01*
X2973682D02*
X2973909Y966313D01*
X2973909D02*
X2974136Y967250D01*
Y968813*
X2974136D02*
X2973909Y969750D01*
X2973682Y970375*
X2973227Y971000*
X2972773Y971313*
X2972773D02*
X2971864D01*
X2976182D02*
Y964750D01*
Y971313D02*
X2979136D01*
X2976182Y968188D02*
X2978000D01*
X2613000Y1096334D02*
X2613777Y1096869D01*
X2614943Y1098472*
Y1087250*
X2618830Y1094731D02*
X2618441Y1094197D01*
X2618830Y1093663*
X2618830D02*
X2619218Y1094197D01*
X2618830Y1094731*
Y1088319D02*
X2618441Y1087784D01*
X2618830Y1087250*
X2619218Y1087784*
X2618830Y1088319*
X2622716Y1096334D02*
X2623493Y1096869D01*
X2624659Y1098472*
Y1087250*
X2683000Y973794D02*
Y959750D01*
Y973794D02*
X2687377D01*
X2688836Y973125*
X2689323Y972456*
X2689809Y971119*
Y969781*
X2689323Y968444*
X2688836Y967775*
X2687377Y967106*
X2683000D02*
X2687377D01*
X2688836Y966438*
X2688836D02*
X2689323Y965769D01*
X2689809Y964431*
Y962425*
X2689323Y961088*
X2689323D02*
X2688836Y960419D01*
X2687377Y959750*
X2683000*
X2377409Y970125D02*
Y962250D01*
X2375500Y970125D02*
X2379318D01*
X2381773D02*
Y962250D01*
X2385591Y970125D02*
Y962250D01*
X2381773Y966375D02*
X2385591D01*
X2388045Y970125D02*
Y962250D01*
Y970125D02*
X2391591D01*
X2388045Y966375D02*
X2390227D01*
X2388045Y962250D02*
X2391591D01*
X2400318Y970125D02*
X2401682Y962250D01*
X2403045Y970125D02*
X2401682Y962250D01*
X2403045Y970125D02*
X2404409Y962250D01*
X2405773Y970125D02*
X2404409Y962250D01*
X2408227Y970125D02*
Y962250D01*
Y970125D02*
X2410682D01*
X2411500Y969750*
X2411773Y969375*
X2412045Y968625*
Y967875*
X2411773Y967125*
X2411500Y966750*
X2410682Y966375*
X2408227*
X2410136D02*
X2412045Y962250D01*
X2414500Y970125D02*
Y962250D01*
X2418864Y970125D02*
Y962250D01*
X2416955Y970125D02*
X2420773D01*
X2425136D02*
Y962250D01*
X2423227Y970125D02*
X2427045D01*
X2429500D02*
Y962250D01*
Y970125D02*
X2433045D01*
X2429500Y966375D02*
X2431682D01*
X2429500Y962250D02*
X2433045D01*
X2435500Y970125D02*
Y962250D01*
Y970125D02*
X2439318Y962250D01*
Y970125D02*
Y962250D01*
X2450227Y970125D02*
X2448045Y962250D01*
X2450227Y970125D02*
X2452409Y962250D01*
X2448864Y964875D02*
X2451591D01*
X2454864Y970125D02*
Y964500D01*
X2455136Y963375*
X2455682Y962625*
X2456500Y962250*
X2457045*
X2457864Y962625*
X2458409Y963375*
X2458682Y964500*
Y970125*
X2463045D02*
Y962250D01*
X2461136Y970125D02*
X2464955D01*
X2467409D02*
Y962250D01*
X2471227Y970125D02*
Y962250D01*
X2467409Y966375D02*
X2471227D01*
X2475318Y970125D02*
X2474773Y969750D01*
X2474227Y969000*
X2473955Y968250*
X2473682Y967125*
Y965250*
X2473955Y964125*
X2474227Y963375*
X2474773Y962625*
X2475318Y962250*
X2476409*
X2476955Y962625*
X2477500Y963375*
X2477773Y964125*
X2478045Y965250*
Y967125*
X2477773Y968250*
X2477500Y969000*
X2476955Y969750*
X2476409Y970125*
X2475318*
X2480500D02*
Y962250D01*
Y970125D02*
X2482955D01*
X2483773Y969750*
X2484045Y969375*
X2484318Y968625*
Y967875*
X2484045Y967125*
X2483773Y966750*
X2482955Y966375*
X2480500*
X2482409D02*
X2484318Y962250D01*
X2486773Y970125D02*
Y962250D01*
X2493045Y970125D02*
X2489227Y962250D01*
Y970125D02*
X2493045D01*
X2489227Y962250D02*
X2493045D01*
X2497682Y970125D02*
X2495500Y962250D01*
X2497682Y970125D02*
X2499864Y962250D01*
X2496318Y964875D02*
X2499045D01*
X2504227Y970125D02*
Y962250D01*
X2502318Y970125D02*
X2506136D01*
X2508591D02*
Y962250D01*
X2512682Y970125D02*
X2512136Y969750D01*
X2511591Y969000*
X2511318Y968250*
X2511045Y967125*
Y965250*
X2511318Y964125*
X2511591Y963375*
X2512136Y962625*
X2512682Y962250*
X2513773*
X2514318Y962625*
X2514864Y963375*
X2515136Y964125*
X2515409Y965250*
Y967125*
X2515136Y968250*
X2514864Y969000*
X2514318Y969750*
X2513773Y970125*
X2512682*
X2517864D02*
Y962250D01*
Y970125D02*
X2521682Y962250D01*
Y970125D02*
Y962250D01*
X2530409Y970125D02*
Y962250D01*
Y970125D02*
X2533955D01*
X2530409Y966375D02*
X2532591D01*
X2536409Y970125D02*
Y962250D01*
Y970125D02*
X2538864D01*
X2539682Y969750*
X2539955Y969375*
X2540227Y968625*
Y967875*
X2539955Y967125*
X2539682Y966750*
X2538864Y966375*
X2536409*
X2538318D02*
X2540227Y962250D01*
X2544318Y970125D02*
X2543773Y969750D01*
X2543227Y969000*
X2542955Y968250*
X2542682Y967125*
Y965250*
X2542955Y964125*
X2543227Y963375*
X2543773Y962625*
X2544318Y962250*
X2545409*
X2545955Y962625*
X2546500Y963375*
X2546773Y964125*
X2547045Y965250*
Y967125*
X2546773Y968250*
X2546500Y969000*
X2545955Y969750*
X2545409Y970125*
X2544318*
X2549500D02*
Y962250D01*
Y970125D02*
X2551682Y962250D01*
X2553864Y970125D02*
X2551682Y962250D01*
X2553864Y970125D02*
Y962250D01*
X2562591Y970125D02*
Y962250D01*
Y970125D02*
X2566136D01*
X2562591Y966375D02*
X2564773D01*
X2562591Y962250D02*
X2566136D01*
X2568591Y970125D02*
Y962250D01*
X2571045Y967500D02*
Y963750D01*
X2571318Y962625*
X2571864Y962250*
X2572682*
X2573227Y962625*
X2574045Y963750*
Y967500D02*
Y962250D01*
X2576500Y967500D02*
Y962250D01*
Y966000D02*
X2577318Y967125D01*
X2577864Y967500*
X2578682*
X2579227Y967125*
X2579500Y966000*
Y962250*
Y966000D02*
X2580318Y967125D01*
X2580864Y967500*
X2581682*
X2582227Y967125*
X2582500Y966000*
Y962250*
X2584955Y965250D02*
X2588227D01*
Y966000*
X2587955Y966750*
X2587682Y967125*
X2587136Y967500*
X2586318*
X2585773Y967125*
X2585227Y966375*
X2584955Y965250*
Y964500*
X2585227Y963375*
X2585773Y962625*
X2586318Y962250*
X2587136*
X2587682Y962625*
X2588227Y963375*
X2590682Y967500D02*
Y962250D01*
Y966000D02*
X2591500Y967125D01*
X2592045Y967500*
X2592864*
X2593409Y967125*
X2593682Y966000*
Y962250*
X2596409Y963000D02*
X2596136Y962625D01*
X2596409Y962250*
X2596682Y962625*
X2596409Y963000*
X2379591Y978250D02*
X2379318Y979000D01*
X2378773Y979750*
X2378227Y980125*
X2377136*
X2376591Y979750*
X2376045Y979000*
X2375773Y978250*
X2375500Y977125*
Y975250*
X2375773Y974125*
X2376045Y973375*
X2376591Y972625*
X2377136Y972250*
X2378227*
X2378773Y972625*
X2379318Y973375*
X2379591Y974125*
X2383682Y980125D02*
X2383136Y979750D01*
X2382591Y979000*
X2382318Y978250*
X2382045Y977125*
Y975250*
X2382318Y974125*
X2382591Y973375*
X2383136Y972625*
X2383682Y972250*
X2384773*
X2385318Y972625*
X2385864Y973375*
X2386136Y974125*
X2386409Y975250*
Y977125*
X2386136Y978250*
X2385864Y979000*
X2385318Y979750*
X2384773Y980125*
X2383682*
X2388864D02*
Y972250D01*
Y980125D02*
X2391318D01*
X2392136Y979750*
X2392409Y979375*
X2392682Y978625*
Y977500*
X2392409Y976750*
X2392136Y976375*
X2391318Y976000*
X2388864*
X2395136Y980125D02*
Y972250D01*
X2397591Y980125D02*
Y972250D01*
Y980125D02*
X2401136D01*
X2397591Y976375D02*
X2399773D01*
X2397591Y972250D02*
X2401136D01*
X2403591Y980125D02*
Y972250D01*
Y980125D02*
X2405500D01*
X2406318Y979750*
X2406864Y979000*
X2407136Y978250*
X2407409Y977125*
Y975250*
X2407136Y974125*
X2406864Y973375*
X2406318Y972625*
X2405500Y972250*
X2403591*
X2417773Y980125D02*
X2417227Y979750D01*
X2416682Y979000*
X2416409Y978250*
X2416136Y977125*
Y975250*
X2416409Y974125*
X2416682Y973375*
X2417227Y972625*
X2417773Y972250*
X2418864*
X2419409Y972625*
X2419955Y973375*
X2420227Y974125*
X2420500Y975250*
Y977125*
X2420227Y978250*
X2419955Y979000*
X2419409Y979750*
X2418864Y980125*
X2417773*
X2422955D02*
Y972250D01*
Y980125D02*
X2425409D01*
X2426227Y979750*
X2426500Y979375*
X2426773Y978625*
Y977875*
X2426500Y977125*
X2426227Y976750*
X2425409Y976375*
X2422955*
X2424864D02*
X2426773Y972250D01*
X2437409Y980125D02*
Y972250D01*
X2435500Y980125D02*
X2439318D01*
X2441773D02*
Y972250D01*
Y980125D02*
X2444227D01*
X2445045Y979750*
X2445318Y979375*
X2445591Y978625*
Y977875*
X2445318Y977125*
X2445045Y976750*
X2444227Y976375*
X2441773*
X2443682D02*
X2445591Y972250D01*
X2450227Y980125D02*
X2448045Y972250D01*
X2450227Y980125D02*
X2452409Y972250D01*
X2448864Y974875D02*
X2451591D01*
X2454864Y980125D02*
Y972250D01*
Y980125D02*
X2458682Y972250D01*
Y980125D02*
Y972250D01*
X2464955Y979000D02*
X2464409Y979750D01*
X2463591Y980125*
X2462500*
X2461682Y979750*
X2461136Y979000*
Y978250*
X2461409Y977500*
X2461682Y977125*
X2462227Y976750*
X2463864Y976000*
X2464409Y975625*
X2464682Y975250*
X2464955Y974500*
Y973375*
X2464409Y972625*
X2463591Y972250*
X2462500*
X2461682Y972625*
X2461136Y973375*
X2467409Y980125D02*
Y972250D01*
Y980125D02*
X2469591Y972250D01*
X2471773Y980125D02*
X2469591Y972250D01*
X2471773Y980125D02*
Y972250D01*
X2474227Y980125D02*
Y972250D01*
X2478591Y980125D02*
Y972250D01*
X2476682Y980125D02*
X2480500D01*
X2484864D02*
Y972250D01*
X2482955Y980125D02*
X2486773D01*
X2489227D02*
Y972250D01*
Y980125D02*
X2492773D01*
X2489227Y976375D02*
X2491409D01*
X2489227Y972250D02*
X2492773D01*
X2495227Y980125D02*
Y972250D01*
Y980125D02*
X2497136D01*
X2497955Y979750*
X2498500Y979000*
X2498773Y978250*
X2499045Y977125*
Y975250*
X2498773Y974125*
X2498500Y973375*
X2497955Y972625*
X2497136Y972250*
X2495227*
X2509682Y980125D02*
Y972250D01*
X2507773Y980125D02*
X2511591D01*
X2515682D02*
X2515136Y979750D01*
X2514591Y979000*
X2514318Y978250*
X2514045Y977125*
Y975250*
X2514318Y974125*
X2514591Y973375*
X2515136Y972625*
X2515682Y972250*
X2516773*
X2517318Y972625*
X2517864Y973375*
X2518136Y974125*
X2518409Y975250*
Y977125*
X2518136Y978250*
X2517864Y979000*
X2517318Y979750*
X2516773Y980125*
X2515682*
X2528773D02*
X2528227Y979750D01*
X2527682Y979000*
X2527409Y978250*
X2527136Y977125*
Y975250*
X2527409Y974125*
X2527682Y973375*
X2528227Y972625*
X2528773Y972250*
X2529864*
X2530409Y972625*
X2530955Y973375*
X2531227Y974125*
X2531500Y975250*
Y977125*
X2531227Y978250*
X2530955Y979000*
X2530409Y979750*
X2529864Y980125*
X2528773*
X2535864D02*
Y972250D01*
X2533955Y980125D02*
X2537773D01*
X2540227D02*
Y972250D01*
X2544045Y980125D02*
Y972250D01*
X2540227Y976375D02*
X2544045D01*
X2546500Y980125D02*
Y972250D01*
Y980125D02*
X2550045D01*
X2546500Y976375D02*
X2548682D01*
X2546500Y972250D02*
X2550045D01*
X2552500Y980125D02*
Y972250D01*
Y980125D02*
X2554955D01*
X2555773Y979750*
X2556045Y979375*
X2556318Y978625*
Y977875*
X2556045Y977125*
X2555773Y976750*
X2554955Y976375*
X2552500*
X2554409D02*
X2556318Y972250D01*
X2565045Y980125D02*
Y972250D01*
Y980125D02*
X2567500D01*
X2568318Y979750*
X2568591Y979375*
X2568864Y978625*
Y977500*
X2568591Y976750*
X2568318Y976375*
X2567500Y976000*
X2565045*
X2571318Y980125D02*
Y972250D01*
Y980125D02*
X2574864D01*
X2571318Y976375D02*
X2573500D01*
X2571318Y972250D02*
X2574864D01*
X2577318Y980125D02*
Y972250D01*
Y980125D02*
X2579773D01*
X2580591Y979750*
X2580864Y979375*
X2581136Y978625*
Y977875*
X2580864Y977125*
X2580591Y976750*
X2579773Y976375*
X2577318*
X2579227D02*
X2581136Y972250D01*
X2587409Y979000D02*
X2586864Y979750D01*
X2586045Y980125*
X2584955*
X2584136Y979750*
X2583591Y979000*
Y978250*
X2583864Y977500*
X2584136Y977125*
X2584682Y976750*
X2586318Y976000*
X2586864Y975625*
X2587136Y975250*
X2587409Y974500*
Y973375*
X2586864Y972625*
X2586045Y972250*
X2584955*
X2584136Y972625*
X2583591Y973375*
X2591500Y980125D02*
X2590955Y979750D01*
X2590409Y979000*
X2590136Y978250*
X2589864Y977125*
Y975250*
X2590136Y974125*
X2590409Y973375*
X2590955Y972625*
X2591500Y972250*
X2592591*
X2593136Y972625*
X2593682Y973375*
X2593955Y974125*
X2594227Y975250*
Y977125*
X2593955Y978250*
X2593682Y979000*
X2593136Y979750*
X2592591Y980125*
X2591500*
X2596682D02*
Y972250D01*
Y980125D02*
X2600500Y972250D01*
Y980125D02*
Y972250D01*
X2606773Y979000D02*
X2606227Y979750D01*
X2605409Y980125*
X2604318*
X2603500Y979750*
X2602955Y979000*
Y978250*
X2603227Y977500*
X2603500Y977125*
X2604045Y976750*
X2605682Y976000*
X2606227Y975625*
X2606500Y975250*
X2606773Y974500*
Y973375*
X2606227Y972625*
X2605409Y972250*
X2604318*
X2603500Y972625*
X2602955Y973375*
X2609773Y972625D02*
X2609500Y972250D01*
X2609227Y972625*
X2609500Y973000*
X2609773Y972625*
Y971875*
X2609500Y971125*
X2609227Y970750*
X2618500Y980125D02*
X2619864Y972250D01*
X2621227Y980125D02*
X2619864Y972250D01*
X2621227Y980125D02*
X2622591Y972250D01*
X2623955Y980125D02*
X2622591Y972250D01*
X2626409Y980125D02*
Y972250D01*
X2630773Y980125D02*
Y972250D01*
X2628864Y980125D02*
X2632682D01*
X2635136D02*
Y972250D01*
X2638955Y980125D02*
Y972250D01*
X2635136Y976375D02*
X2638955D01*
X2643045Y980125D02*
X2642500Y979750D01*
X2641955Y979000*
X2641682Y978250*
X2641409Y977125*
Y975250*
X2641682Y974125*
X2641955Y973375*
X2642500Y972625*
X2643045Y972250*
X2644136*
X2644682Y972625*
X2645227Y973375*
X2645500Y974125*
X2645773Y975250*
Y977125*
X2645500Y978250*
X2645227Y979000*
X2644682Y979750*
X2644136Y980125*
X2643045*
X2648227D02*
Y974500D01*
X2648500Y973375*
X2649045Y972625*
X2649864Y972250*
X2650409*
X2651227Y972625*
X2651773Y973375*
X2652045Y974500*
Y980125*
X2656409D02*
Y972250D01*
X2654500Y980125D02*
X2658318D01*
X2377409Y990125D02*
Y982250D01*
X2375500Y990125D02*
X2379318D01*
X2381773D02*
Y982250D01*
Y990125D02*
X2385318D01*
X2381773Y986375D02*
X2383955D01*
X2381773Y982250D02*
X2385318D01*
X2391864Y988250D02*
X2391591Y989000D01*
X2391045Y989750*
X2390500Y990125*
X2389409*
X2388864Y989750*
X2388318Y989000*
X2388045Y988250*
X2387773Y987125*
Y985250*
X2388045Y984125*
X2388318Y983375*
X2388864Y982625*
X2389409Y982250*
X2390500*
X2391045Y982625*
X2391591Y983375*
X2391864Y984125*
X2394318Y990125D02*
Y982250D01*
X2398136Y990125D02*
Y982250D01*
X2394318Y986375D02*
X2398136D01*
X2400591Y990125D02*
Y982250D01*
Y990125D02*
X2404409Y982250D01*
Y990125D02*
Y982250D01*
X2408500Y990125D02*
X2407955Y989750D01*
X2407409Y989000*
X2407136Y988250*
X2406864Y987125*
Y985250*
X2407136Y984125*
X2407409Y983375*
X2407955Y982625*
X2408500Y982250*
X2409591*
X2410136Y982625*
X2410682Y983375*
X2410955Y984125*
X2411227Y985250*
Y987125*
X2410955Y988250*
X2410682Y989000*
X2410136Y989750*
X2409591Y990125*
X2408500*
X2413682D02*
Y982250D01*
X2416955*
X2421045Y990125D02*
X2420500Y989750D01*
X2419955Y989000*
X2419682Y988250*
X2419409Y987125*
Y985250*
X2419682Y984125*
X2419955Y983375*
X2420500Y982625*
X2421045Y982250*
X2422136*
X2422682Y982625*
X2423227Y983375*
X2423500Y984125*
X2423773Y985250*
Y987125*
X2423500Y988250*
X2423227Y989000*
X2422682Y989750*
X2422136Y990125*
X2421045*
X2430318Y988250D02*
X2430045Y989000D01*
X2429500Y989750*
X2428955Y990125*
X2427864*
X2427318Y989750*
X2426773Y989000*
X2426500Y988250*
X2426227Y987125*
Y985250*
X2426500Y984125*
X2426773Y983375*
X2427318Y982625*
X2427864Y982250*
X2428955*
X2429500Y982625*
X2430045Y983375*
X2430318Y984125*
Y985250*
X2428955D02*
X2430318D01*
X2432773Y990125D02*
Y982250D01*
X2435227Y990125D02*
Y982250D01*
Y990125D02*
X2438773D01*
X2435227Y986375D02*
X2437409D01*
X2435227Y982250D02*
X2438773D01*
X2445045Y989000D02*
X2444500Y989750D01*
X2443682Y990125*
X2442591*
X2441773Y989750*
X2441227Y989000*
Y988250*
X2441500Y987500*
X2441773Y987125*
X2442318Y986750*
X2443955Y986000*
X2444500Y985625*
X2444773Y985250*
X2445045Y984500*
Y983375*
X2444500Y982625*
X2443682Y982250*
X2442591*
X2441773Y982625*
X2441227Y983375*
X2453773Y990125D02*
Y982250D01*
X2458136Y990125D02*
Y982250D01*
X2456227Y990125D02*
X2460045D01*
X2472591Y989000D02*
X2472045Y989750D01*
X2471227Y990125*
X2470136*
X2469318Y989750*
X2468773Y989000*
Y988250*
X2469045Y987500*
X2469318Y987125*
X2469864Y986750*
X2471500Y986000*
X2472045Y985625*
X2472318Y985250*
X2472591Y984500*
Y983375*
X2472045Y982625*
X2471227Y982250*
X2470136*
X2469318Y982625*
X2468773Y983375*
X2475045Y990125D02*
Y982250D01*
X2478864Y990125D02*
Y982250D01*
X2475045Y986375D02*
X2478864D01*
X2483500Y990125D02*
X2481318Y982250D01*
X2483500Y990125D02*
X2485682Y982250D01*
X2482136Y984875D02*
X2484864D01*
X2488136Y990125D02*
Y982250D01*
X2491409*
X2493864Y990125D02*
Y982250D01*
X2497136*
X2505864Y990125D02*
Y982250D01*
Y990125D02*
X2509682Y982250D01*
Y990125D02*
Y982250D01*
X2513773Y990125D02*
X2513227Y989750D01*
X2512682Y989000*
X2512409Y988250*
X2512136Y987125*
Y985250*
X2512409Y984125*
X2512682Y983375*
X2513227Y982625*
X2513773Y982250*
X2514864*
X2515409Y982625*
X2515955Y983375*
X2516227Y984125*
X2516500Y985250*
Y987125*
X2516227Y988250*
X2515955Y989000*
X2515409Y989750*
X2514864Y990125*
X2513773*
X2520864D02*
Y982250D01*
X2518955Y990125D02*
X2522773D01*
X2531500D02*
Y982250D01*
Y990125D02*
X2533955D01*
X2534773Y989750*
X2535045Y989375*
X2535318Y988625*
Y987875*
X2535045Y987125*
X2534773Y986750*
X2533955Y986375*
X2531500D02*
X2533955D01*
X2534773Y986000*
X2535045Y985625*
X2535318Y984875*
Y983750*
X2535045Y983000*
X2534773Y982625*
X2533955Y982250*
X2531500*
X2537773Y990125D02*
Y982250D01*
Y990125D02*
X2541318D01*
X2537773Y986375D02*
X2539955D01*
X2537773Y982250D02*
X2541318D01*
X2550045Y990125D02*
Y984500D01*
X2550318Y983375*
X2550864Y982625*
X2551682Y982250*
X2552227*
X2553045Y982625*
X2553591Y983375*
X2553864Y984500*
Y990125*
X2560136Y989000D02*
X2559591Y989750D01*
X2558773Y990125*
X2557682*
X2556864Y989750*
X2556318Y989000*
Y988250*
X2556591Y987500*
X2556864Y987125*
X2557409Y986750*
X2559045Y986000*
X2559591Y985625*
X2559864Y985250*
X2560136Y984500*
Y983375*
X2559591Y982625*
X2558773Y982250*
X2557682*
X2556864Y982625*
X2556318Y983375*
X2562591Y990125D02*
Y982250D01*
Y990125D02*
X2566136D01*
X2562591Y986375D02*
X2564773D01*
X2562591Y982250D02*
X2566136D01*
X2568591Y990125D02*
Y982250D01*
Y990125D02*
X2570500D01*
X2571318Y989750*
X2571864Y989000*
X2572136Y988250*
X2572409Y987125*
Y985250*
X2572136Y984125*
X2571864Y983375*
X2571318Y982625*
X2570500Y982250*
X2568591*
X2575409Y982625D02*
X2575136Y982250D01*
X2574864Y982625*
X2575136Y983000*
X2575409Y982625*
Y981875*
X2575136Y981125*
X2574864Y980750*
X2584136Y990125D02*
Y982250D01*
Y990125D02*
X2586591D01*
X2587409Y989750*
X2587682Y989375*
X2587955Y988625*
Y987875*
X2587682Y987125*
X2587409Y986750*
X2586591Y986375*
X2584136*
X2586045D02*
X2587955Y982250D01*
X2590409Y990125D02*
Y982250D01*
Y990125D02*
X2593955D01*
X2590409Y986375D02*
X2592591D01*
X2590409Y982250D02*
X2593955D01*
X2596409Y990125D02*
Y982250D01*
Y990125D02*
X2598864D01*
X2599682Y989750*
X2599955Y989375*
X2600227Y988625*
Y987500*
X2599955Y986750*
X2599682Y986375*
X2598864Y986000*
X2596409*
X2602682Y990125D02*
Y982250D01*
Y990125D02*
X2605136D01*
X2605955Y989750*
X2606227Y989375*
X2606500Y988625*
Y987875*
X2606227Y987125*
X2605955Y986750*
X2605136Y986375*
X2602682*
X2604591D02*
X2606500Y982250D01*
X2610591Y990125D02*
X2610045Y989750D01*
X2609500Y989000*
X2609227Y988250*
X2608955Y987125*
Y985250*
X2609227Y984125*
X2609500Y983375*
X2610045Y982625*
X2610591Y982250*
X2611682*
X2612227Y982625*
X2612773Y983375*
X2613045Y984125*
X2613318Y985250*
Y987125*
X2613045Y988250*
X2612773Y989000*
X2612227Y989750*
X2611682Y990125*
X2610591*
X2615773D02*
Y982250D01*
Y990125D02*
X2617682D01*
X2618500Y989750*
X2619045Y989000*
X2619318Y988250*
X2619591Y987125*
Y985250*
X2619318Y984125*
X2619045Y983375*
X2618500Y982625*
X2617682Y982250*
X2615773*
X2622045Y990125D02*
Y984500D01*
X2622318Y983375*
X2622864Y982625*
X2623682Y982250*
X2624227*
X2625045Y982625*
X2625591Y983375*
X2625864Y984500*
Y990125*
X2632409Y988250D02*
X2632136Y989000D01*
X2631591Y989750*
X2631045Y990125*
X2629955*
X2629409Y989750*
X2628864Y989000*
X2628591Y988250*
X2628318Y987125*
Y985250*
X2628591Y984125*
X2628864Y983375*
X2629409Y982625*
X2629955Y982250*
X2631045*
X2631591Y982625*
X2632136Y983375*
X2632409Y984125*
X2634864Y990125D02*
Y982250D01*
Y990125D02*
X2638409D01*
X2634864Y986375D02*
X2637045D01*
X2634864Y982250D02*
X2638409D01*
X2640864Y990125D02*
Y982250D01*
Y990125D02*
X2642773D01*
X2643591Y989750*
X2644136Y989000*
X2644409Y988250*
X2644682Y987125*
Y985250*
X2644409Y984125*
X2644136Y983375*
X2643591Y982625*
X2642773Y982250*
X2640864*
X2647682Y982625D02*
X2647409Y982250D01*
X2647136Y982625*
X2647409Y983000*
X2647682Y982625*
Y981875*
X2647409Y981125*
X2647136Y980750*
X2377409Y1000125D02*
Y992250D01*
X2375500Y1000125D02*
X2379318D01*
X2381773D02*
Y992250D01*
X2385591Y1000125D02*
Y992250D01*
X2381773Y996375D02*
X2385591D01*
X2388045Y1000125D02*
Y992250D01*
X2394318Y999000D02*
X2393773Y999750D01*
X2392955Y1000125*
X2391864*
X2391045Y999750*
X2390500Y999000*
Y998250*
X2390773Y997500*
X2391045Y997125*
X2391591Y996750*
X2393227Y996000*
X2393773Y995625*
X2394045Y995250*
X2394318Y994500*
Y993375*
X2393773Y992625*
X2392955Y992250*
X2391864*
X2391045Y992625*
X2390500Y993375*
X2403045Y1000125D02*
Y992250D01*
Y1000125D02*
X2404955D01*
X2405773Y999750*
X2406318Y999000*
X2406591Y998250*
X2406864Y997125*
Y995250*
X2406591Y994125*
X2406318Y993375*
X2405773Y992625*
X2404955Y992250*
X2403045*
X2410955Y1000125D02*
X2410409Y999750D01*
X2409864Y999000*
X2409591Y998250*
X2409318Y997125*
Y995250*
X2409591Y994125*
X2409864Y993375*
X2410409Y992625*
X2410955Y992250*
X2412045*
X2412591Y992625*
X2413136Y993375*
X2413409Y994125*
X2413682Y995250*
Y997125*
X2413409Y998250*
X2413136Y999000*
X2412591Y999750*
X2412045Y1000125*
X2410955*
X2420227Y998250D02*
X2419955Y999000D01*
X2419409Y999750*
X2418864Y1000125*
X2417773*
X2417227Y999750*
X2416682Y999000*
X2416409Y998250*
X2416136Y997125*
Y995250*
X2416409Y994125*
X2416682Y993375*
X2417227Y992625*
X2417773Y992250*
X2418864*
X2419409Y992625*
X2419955Y993375*
X2420227Y994125*
X2422682Y1000125D02*
Y994500D01*
X2422955Y993375*
X2423500Y992625*
X2424318Y992250*
X2424864*
X2425682Y992625*
X2426227Y993375*
X2426500Y994500*
Y1000125*
X2428955D02*
Y992250D01*
Y1000125D02*
X2431136Y992250D01*
X2433318Y1000125D02*
X2431136Y992250D01*
X2433318Y1000125D02*
Y992250D01*
X2435773Y1000125D02*
Y992250D01*
Y1000125D02*
X2439318D01*
X2435773Y996375D02*
X2437955D01*
X2435773Y992250D02*
X2439318D01*
X2441773Y1000125D02*
Y992250D01*
Y1000125D02*
X2445591Y992250D01*
Y1000125D02*
Y992250D01*
X2449955Y1000125D02*
Y992250D01*
X2448045Y1000125D02*
X2451864D01*
X2460591D02*
Y992250D01*
X2466864Y999000D02*
X2466318Y999750D01*
X2465500Y1000125*
X2464409*
X2463591Y999750*
X2463045Y999000*
Y998250*
X2463318Y997500*
X2463591Y997125*
X2464136Y996750*
X2465773Y996000*
X2466318Y995625*
X2466591Y995250*
X2466864Y994500*
Y993375*
X2466318Y992625*
X2465500Y992250*
X2464409*
X2463591Y992625*
X2463045Y993375*
X2477500Y1000125D02*
Y992250D01*
X2475591Y1000125D02*
X2479409D01*
X2481864D02*
Y992250D01*
X2485682Y1000125D02*
Y992250D01*
X2481864Y996375D02*
X2485682D01*
X2488136Y1000125D02*
Y992250D01*
Y1000125D02*
X2491682D01*
X2488136Y996375D02*
X2490318D01*
X2488136Y992250D02*
X2491682D01*
X2500409Y1000125D02*
Y992250D01*
Y1000125D02*
X2502864D01*
X2503682Y999750*
X2503955Y999375*
X2504227Y998625*
Y997500*
X2503955Y996750*
X2503682Y996375*
X2502864Y996000*
X2500409*
X2506682Y1000125D02*
Y992250D01*
Y1000125D02*
X2509136D01*
X2509955Y999750*
X2510227Y999375*
X2510500Y998625*
Y997875*
X2510227Y997125*
X2509955Y996750*
X2509136Y996375*
X2506682*
X2508591D02*
X2510500Y992250D01*
X2514591Y1000125D02*
X2514045Y999750D01*
X2513500Y999000*
X2513227Y998250*
X2512955Y997125*
Y995250*
X2513227Y994125*
X2513500Y993375*
X2514045Y992625*
X2514591Y992250*
X2515682*
X2516227Y992625*
X2516773Y993375*
X2517045Y994125*
X2517318Y995250*
Y997125*
X2517045Y998250*
X2516773Y999000*
X2516227Y999750*
X2515682Y1000125*
X2514591*
X2519773D02*
Y992250D01*
Y1000125D02*
X2522227D01*
X2523045Y999750*
X2523318Y999375*
X2523591Y998625*
Y997500*
X2523318Y996750*
X2523045Y996375*
X2522227Y996000*
X2519773*
X2526045Y1000125D02*
Y992250D01*
Y1000125D02*
X2529591D01*
X2526045Y996375D02*
X2528227D01*
X2526045Y992250D02*
X2529591D01*
X2532045Y1000125D02*
Y992250D01*
Y1000125D02*
X2534500D01*
X2535318Y999750*
X2535591Y999375*
X2535864Y998625*
Y997875*
X2535591Y997125*
X2535318Y996750*
X2534500Y996375*
X2532045*
X2533955D02*
X2535864Y992250D01*
X2540227Y1000125D02*
Y992250D01*
X2538318Y1000125D02*
X2542136D01*
X2544591D02*
Y992250D01*
Y1000125D02*
X2547045D01*
X2547864Y999750*
X2548136Y999375*
X2548409Y998625*
Y997875*
X2548136Y997125*
X2547864Y996750*
X2547045Y996375*
X2544591*
X2546500D02*
X2548409Y992250D01*
X2550864Y1000125D02*
X2553045Y996375D01*
Y992250*
X2555227Y1000125D02*
X2553045Y996375D01*
X2565591Y1000125D02*
X2565045Y999750D01*
X2564500Y999000*
X2564227Y998250*
X2563955Y997125*
Y995250*
X2564227Y994125*
X2564500Y993375*
X2565045Y992625*
X2565591Y992250*
X2566682*
X2567227Y992625*
X2567773Y993375*
X2568045Y994125*
X2568318Y995250*
Y997125*
X2568045Y998250*
X2567773Y999000*
X2567227Y999750*
X2566682Y1000125*
X2565591*
X2570773D02*
Y992250D01*
Y1000125D02*
X2574318D01*
X2570773Y996375D02*
X2572955D01*
X2583045Y1000125D02*
Y992250D01*
Y1000125D02*
X2586591D01*
X2583045Y996375D02*
X2585227D01*
X2583045Y992250D02*
X2586591D01*
X2589045Y1000125D02*
Y992250D01*
X2591500Y997500D02*
Y993750D01*
X2591773Y992625*
X2592318Y992250*
X2593136*
X2593682Y992625*
X2594500Y993750*
Y997500D02*
Y992250D01*
X2596955Y997500D02*
Y992250D01*
Y996000D02*
X2597773Y997125D01*
X2598318Y997500*
X2599136*
X2599682Y997125*
X2599955Y996000*
Y992250*
Y996000D02*
X2600773Y997125D01*
X2601318Y997500*
X2602136*
X2602682Y997125*
X2602955Y996000*
Y992250*
X2605409Y995250D02*
X2608682D01*
Y996000*
X2608409Y996750*
X2608136Y997125*
X2607591Y997500*
X2606773*
X2606227Y997125*
X2605682Y996375*
X2605409Y995250*
Y994500*
X2605682Y993375*
X2606227Y992625*
X2606773Y992250*
X2607591*
X2608136Y992625*
X2608682Y993375*
X2611136Y997500D02*
Y992250D01*
Y996000D02*
X2611955Y997125D01*
X2612500Y997500*
X2613318*
X2613864Y997125*
X2614136Y996000*
Y992250*
X2375500Y1025125D02*
Y1017250D01*
Y1025125D02*
X2379045D01*
X2375500Y1021375D02*
X2377682D01*
X2375500Y1017250D02*
X2379045D01*
X2385591Y1023250D02*
X2385318Y1024000D01*
X2384773Y1024750*
X2384227Y1025125*
X2383136*
X2382591Y1024750*
X2382045Y1024000*
X2381773Y1023250*
X2381500Y1022125*
Y1020250*
X2381773Y1019125*
X2382045Y1018375*
X2382591Y1017625*
X2383136Y1017250*
X2384227*
X2384773Y1017625*
X2385318Y1018375*
X2385591Y1019125*
X2388045Y1025125D02*
Y1017250D01*
Y1025125D02*
X2390500D01*
X2391318Y1024750*
X2391591Y1024375*
X2391864Y1023625*
Y1022875*
X2391591Y1022125*
X2391318Y1021750*
X2390500Y1021375*
X2388045*
X2389955D02*
X2391864Y1017250D01*
X2394318Y1025125D02*
Y1017250D01*
X2398682Y1025125D02*
Y1017250D01*
X2396773Y1025125D02*
X2400591D01*
X2403045D02*
Y1017250D01*
Y1025125D02*
X2406591D01*
X2403045Y1021375D02*
X2405227D01*
X2403045Y1017250D02*
X2406591D01*
X2415318Y1025125D02*
Y1017250D01*
Y1025125D02*
X2417227D01*
X2418045Y1024750*
X2418591Y1024000*
X2418864Y1023250*
X2419136Y1022125*
Y1020250*
X2418864Y1019125*
X2418591Y1018375*
X2418045Y1017625*
X2417227Y1017250*
X2415318*
X2421591Y1025125D02*
Y1017250D01*
Y1025125D02*
X2425136D01*
X2421591Y1021375D02*
X2423773D01*
X2421591Y1017250D02*
X2425136D01*
X2433864Y1025125D02*
Y1017250D01*
X2437136*
X2441773Y1025125D02*
X2439591Y1017250D01*
X2441773Y1025125D02*
X2443955Y1017250D01*
X2440409Y1019875D02*
X2443136D01*
X2456773Y1023250D02*
X2456500Y1024000D01*
X2455955Y1024750*
X2455409Y1025125*
X2454318*
X2453773Y1024750*
X2453227Y1024000*
X2452955Y1023250*
X2452682Y1022125*
Y1020250*
X2452955Y1019125*
X2453227Y1018375*
X2453773Y1017625*
X2454318Y1017250*
X2455409*
X2455955Y1017625*
X2456500Y1018375*
X2456773Y1019125*
X2460864Y1025125D02*
X2460318Y1024750D01*
X2459773Y1024000*
X2459500Y1023250*
X2459227Y1022125*
Y1020250*
X2459500Y1019125*
X2459773Y1018375*
X2460318Y1017625*
X2460864Y1017250*
X2461955*
X2462500Y1017625*
X2463045Y1018375*
X2463318Y1019125*
X2463591Y1020250*
Y1022125*
X2463318Y1023250*
X2463045Y1024000*
X2462500Y1024750*
X2461955Y1025125*
X2460864*
X2466045D02*
Y1017250D01*
Y1025125D02*
X2468227Y1017250D01*
X2470409Y1025125D02*
X2468227Y1017250D01*
X2470409Y1025125D02*
Y1017250D01*
X2472864Y1025125D02*
Y1017250D01*
Y1025125D02*
X2475318D01*
X2476136Y1024750*
X2476409Y1024375*
X2476682Y1023625*
Y1022500*
X2476409Y1021750*
X2476136Y1021375*
X2475318Y1021000*
X2472864*
X2481318Y1025125D02*
X2479136Y1017250D01*
X2481318Y1025125D02*
X2483500Y1017250D01*
X2479955Y1019875D02*
X2482682D01*
X2490045Y1023250D02*
X2489773Y1024000D01*
X2489227Y1024750*
X2488682Y1025125*
X2487591*
X2487045Y1024750*
X2486500Y1024000*
X2486227Y1023250*
X2485955Y1022125*
Y1020250*
X2486227Y1019125*
X2486500Y1018375*
X2487045Y1017625*
X2487591Y1017250*
X2488682*
X2489227Y1017625*
X2489773Y1018375*
X2490045Y1019125*
Y1020250*
X2488682D02*
X2490045D01*
X2492500Y1025125D02*
Y1017250D01*
Y1025125D02*
X2496318Y1017250D01*
Y1025125D02*
Y1017250D01*
X2498773Y1025125D02*
Y1017250D01*
X2501227Y1025125D02*
Y1017250D01*
Y1025125D02*
X2504773D01*
X2501227Y1021375D02*
X2503409D01*
X2501227Y1017250D02*
X2504773D01*
X2513500Y1025125D02*
Y1017250D01*
Y1025125D02*
X2517045D01*
X2513500Y1021375D02*
X2515682D01*
X2513500Y1017250D02*
X2517045D01*
X2519500Y1025125D02*
Y1017250D01*
X2521955Y1022500D02*
Y1018750D01*
X2522227Y1017625*
X2522773Y1017250*
X2523591*
X2524136Y1017625*
X2524955Y1018750*
Y1022500D02*
Y1017250D01*
X2527409Y1022500D02*
Y1017250D01*
Y1021000D02*
X2528227Y1022125D01*
X2528773Y1022500*
X2529591*
X2530136Y1022125*
X2530409Y1021000*
Y1017250*
Y1021000D02*
X2531227Y1022125D01*
X2531773Y1022500*
X2532591*
X2533136Y1022125*
X2533409Y1021000*
Y1017250*
X2535864Y1020250D02*
X2539136D01*
Y1021000*
X2538864Y1021750*
X2538591Y1022125*
X2538045Y1022500*
X2537227*
X2536682Y1022125*
X2536136Y1021375*
X2535864Y1020250*
Y1019500*
X2536136Y1018375*
X2536682Y1017625*
X2537227Y1017250*
X2538045*
X2538591Y1017625*
X2539136Y1018375*
X2541591Y1022500D02*
Y1017250D01*
Y1021000D02*
X2542409Y1022125D01*
X2542955Y1022500*
X2543773*
X2544318Y1022125*
X2544591Y1021000*
Y1017250*
X2375500Y1035125D02*
Y1027250D01*
Y1035125D02*
X2377955D01*
X2378773Y1034750*
X2379045Y1034375*
X2379318Y1033625*
Y1032500*
X2379045Y1031750*
X2378773Y1031375*
X2377955Y1031000*
X2375500*
X2381773Y1035125D02*
Y1027250D01*
Y1035125D02*
X2385318D01*
X2381773Y1031375D02*
X2383955D01*
X2381773Y1027250D02*
X2385318D01*
X2387773Y1035125D02*
Y1027250D01*
Y1035125D02*
X2390227D01*
X2391045Y1034750*
X2391318Y1034375*
X2391591Y1033625*
Y1032875*
X2391318Y1032125*
X2391045Y1031750*
X2390227Y1031375*
X2387773*
X2389682D02*
X2391591Y1027250D01*
X2397864Y1034000D02*
X2397318Y1034750D01*
X2396500Y1035125*
X2395409*
X2394591Y1034750*
X2394045Y1034000*
Y1033250*
X2394318Y1032500*
X2394591Y1032125*
X2395136Y1031750*
X2396773Y1031000*
X2397318Y1030625*
X2397591Y1030250*
X2397864Y1029500*
Y1028375*
X2397318Y1027625*
X2396500Y1027250*
X2395409*
X2394591Y1027625*
X2394045Y1028375*
X2401955Y1035125D02*
X2401409Y1034750D01*
X2400864Y1034000*
X2400591Y1033250*
X2400318Y1032125*
Y1030250*
X2400591Y1029125*
X2400864Y1028375*
X2401409Y1027625*
X2401955Y1027250*
X2403045*
X2403591Y1027625*
X2404136Y1028375*
X2404409Y1029125*
X2404682Y1030250*
Y1032125*
X2404409Y1033250*
X2404136Y1034000*
X2403591Y1034750*
X2403045Y1035125*
X2401955*
X2407136D02*
Y1027250D01*
Y1035125D02*
X2410955Y1027250D01*
Y1035125D02*
Y1027250D01*
X2413409Y1035125D02*
Y1027250D01*
Y1035125D02*
X2417227Y1027250D01*
Y1035125D02*
Y1027250D01*
X2419682Y1035125D02*
Y1027250D01*
Y1035125D02*
X2423227D01*
X2419682Y1031375D02*
X2421864D01*
X2419682Y1027250D02*
X2423227D01*
X2429500Y1034000D02*
X2428955Y1034750D01*
X2428136Y1035125*
X2427045*
X2426227Y1034750*
X2425682Y1034000*
Y1033250*
X2425955Y1032500*
X2426227Y1032125*
X2426773Y1031750*
X2428409Y1031000*
X2428955Y1030625*
X2429227Y1030250*
X2429500Y1029500*
Y1028375*
X2428955Y1027625*
X2428136Y1027250*
X2427045*
X2426227Y1027625*
X2425682Y1028375*
X2440409Y1035125D02*
X2438227Y1027250D01*
X2440409Y1035125D02*
X2442591Y1027250D01*
X2439045Y1029875D02*
X2441773D01*
X2451318Y1035125D02*
Y1027250D01*
Y1035125D02*
X2453500Y1027250D01*
X2455682Y1035125D02*
X2453500Y1027250D01*
X2455682Y1035125D02*
Y1027250D01*
X2459773Y1035125D02*
X2459227Y1034750D01*
X2458682Y1034000*
X2458409Y1033250*
X2458136Y1032125*
Y1030250*
X2458409Y1029125*
X2458682Y1028375*
X2459227Y1027625*
X2459773Y1027250*
X2460864*
X2461409Y1027625*
X2461955Y1028375*
X2462227Y1029125*
X2462500Y1030250*
Y1032125*
X2462227Y1033250*
X2461955Y1034000*
X2461409Y1034750*
X2460864Y1035125*
X2459773*
X2464955D02*
Y1027250D01*
X2467409Y1035125D02*
Y1027250D01*
Y1035125D02*
X2471227Y1027250D01*
Y1035125D02*
Y1027250D01*
X2477500Y1034000D02*
X2476955Y1034750D01*
X2476136Y1035125*
X2475045*
X2474227Y1034750*
X2473682Y1034000*
Y1033250*
X2473955Y1032500*
X2474227Y1032125*
X2474773Y1031750*
X2476409Y1031000*
X2476955Y1030625*
X2477227Y1030250*
X2477500Y1029500*
Y1028375*
X2476955Y1027625*
X2476136Y1027250*
X2475045*
X2474227Y1027625*
X2473682Y1028375*
X2486227Y1035125D02*
Y1027250D01*
Y1035125D02*
X2488136D01*
X2488955Y1034750*
X2489500Y1034000*
X2489773Y1033250*
X2490045Y1032125*
Y1030250*
X2489773Y1029125*
X2489500Y1028375*
X2488955Y1027625*
X2488136Y1027250*
X2486227*
X2492500Y1035125D02*
Y1027250D01*
Y1035125D02*
X2496045D01*
X2492500Y1031375D02*
X2494682D01*
X2492500Y1027250D02*
X2496045D01*
X2504773Y1035125D02*
Y1027250D01*
Y1035125D02*
X2507227D01*
X2508045Y1034750*
X2508318Y1034375*
X2508591Y1033625*
Y1032875*
X2508318Y1032125*
X2508045Y1031750*
X2507227Y1031375*
X2504773*
X2506682D02*
X2508591Y1027250D01*
X2511045Y1035125D02*
Y1027250D01*
Y1035125D02*
X2514591D01*
X2511045Y1031375D02*
X2513227D01*
X2511045Y1027250D02*
X2514591D01*
X2521136Y1033250D02*
X2520864Y1034000D01*
X2520318Y1034750*
X2519773Y1035125*
X2518682*
X2518136Y1034750*
X2517591Y1034000*
X2517318Y1033250*
X2517045Y1032125*
Y1030250*
X2517318Y1029125*
X2517591Y1028375*
X2518136Y1027625*
X2518682Y1027250*
X2519773*
X2520318Y1027625*
X2520864Y1028375*
X2521136Y1029125*
X2523591Y1035125D02*
Y1027250D01*
Y1035125D02*
X2527136D01*
X2523591Y1031375D02*
X2525773D01*
X2523591Y1027250D02*
X2527136D01*
X2529591Y1035125D02*
X2531773Y1027250D01*
X2533955Y1035125D02*
X2531773Y1027250D01*
X2538045Y1035125D02*
X2537500Y1034750D01*
X2536955Y1034000*
X2536682Y1033250*
X2536409Y1032125*
Y1030250*
X2536682Y1029125*
X2536955Y1028375*
X2537500Y1027625*
X2538045Y1027250*
X2539136*
X2539682Y1027625*
X2540227Y1028375*
X2540500Y1029125*
X2540773Y1030250*
Y1032125*
X2540500Y1033250*
X2540227Y1034000*
X2539682Y1034750*
X2539136Y1035125*
X2538045*
X2543227D02*
Y1027250D01*
X2545682Y1035125D02*
Y1027250D01*
Y1035125D02*
X2548136D01*
X2548955Y1034750*
X2549227Y1034375*
X2549500Y1033625*
Y1032875*
X2549227Y1032125*
X2548955Y1031750*
X2548136Y1031375*
X2545682*
X2547591D02*
X2549500Y1027250D01*
X2558227Y1035125D02*
Y1029500D01*
X2558500Y1028375*
X2559045Y1027625*
X2559864Y1027250*
X2560409*
X2561227Y1027625*
X2561773Y1028375*
X2562045Y1029500*
Y1035125*
X2564500D02*
Y1027250D01*
Y1035125D02*
X2568318Y1027250D01*
Y1035125D02*
Y1027250D01*
X2570773Y1035125D02*
Y1027250D01*
Y1035125D02*
X2574318D01*
X2570773Y1031375D02*
X2572955D01*
X2570773Y1027250D02*
X2574318D01*
X2585227Y1035125D02*
X2583045Y1027250D01*
X2585227Y1035125D02*
X2587409Y1027250D01*
X2583864Y1029875D02*
X2586591D01*
X2589864Y1035125D02*
Y1029500D01*
X2590136Y1028375*
X2590682Y1027625*
X2591500Y1027250*
X2592045*
X2592864Y1027625*
X2593409Y1028375*
X2593682Y1029500*
Y1035125*
X2598045D02*
Y1027250D01*
X2596136Y1035125D02*
X2599955D01*
X2604045D02*
X2603500Y1034750D01*
X2602955Y1034000*
X2602682Y1033250*
X2602409Y1032125*
Y1030250*
X2602682Y1029125*
X2602955Y1028375*
X2603500Y1027625*
X2604045Y1027250*
X2605136*
X2605682Y1027625*
X2606227Y1028375*
X2606500Y1029125*
X2606773Y1030250*
Y1032125*
X2606500Y1033250*
X2606227Y1034000*
X2605682Y1034750*
X2605136Y1035125*
X2604045*
X2609227D02*
Y1027250D01*
Y1035125D02*
X2611682D01*
X2612500Y1034750*
X2612773Y1034375*
X2613045Y1033625*
Y1032875*
X2612773Y1032125*
X2612500Y1031750*
X2611682Y1031375*
X2609227*
X2611136D02*
X2613045Y1027250D01*
X2615500Y1035125D02*
Y1027250D01*
X2621773Y1034000D02*
X2621227Y1034750D01*
X2620409Y1035125*
X2619318*
X2618500Y1034750*
X2617955Y1034000*
Y1033250*
X2618227Y1032500*
X2618500Y1032125*
X2619045Y1031750*
X2620682Y1031000*
X2621227Y1030625*
X2621500Y1030250*
X2621773Y1029500*
Y1028375*
X2621227Y1027625*
X2620409Y1027250*
X2619318*
X2618500Y1027625*
X2617955Y1028375*
X2626409Y1035125D02*
X2624227Y1027250D01*
X2626409Y1035125D02*
X2628591Y1027250D01*
X2625045Y1029875D02*
X2627773D01*
X2632955Y1035125D02*
Y1027250D01*
X2631045Y1035125D02*
X2634864D01*
X2637318D02*
Y1027250D01*
X2641409Y1035125D02*
X2640864Y1034750D01*
X2640318Y1034000*
X2640045Y1033250*
X2639773Y1032125*
Y1030250*
X2640045Y1029125*
X2640318Y1028375*
X2640864Y1027625*
X2641409Y1027250*
X2642500*
X2643045Y1027625*
X2643591Y1028375*
X2643864Y1029125*
X2644136Y1030250*
Y1032125*
X2643864Y1033250*
X2643591Y1034000*
X2643045Y1034750*
X2642500Y1035125*
X2641409*
X2646591D02*
Y1027250D01*
Y1035125D02*
X2650409Y1027250D01*
Y1035125D02*
Y1027250D01*
X2379591Y1063250D02*
X2379318Y1064000D01*
X2378773Y1064750*
X2378227Y1065125*
X2377136*
X2376591Y1064750*
X2376045Y1064000*
X2375773Y1063250*
X2375500Y1062125*
Y1060250*
X2375773Y1059125*
X2376045Y1058375*
X2376591Y1057625*
X2377136Y1057250*
X2378227*
X2378773Y1057625*
X2379318Y1058375*
X2379591Y1059125*
X2382045Y1065125D02*
Y1057250D01*
Y1065125D02*
X2385591D01*
X2382045Y1061375D02*
X2384227D01*
X2382045Y1057250D02*
X2385591D01*
X2394318Y1065125D02*
Y1057250D01*
Y1065125D02*
X2396227D01*
X2397045Y1064750*
X2397591Y1064000*
X2397864Y1063250*
X2398136Y1062125*
Y1060250*
X2397864Y1059125*
X2397591Y1058375*
X2397045Y1057625*
X2396227Y1057250*
X2394318*
X2402227Y1065125D02*
X2401682Y1064750D01*
X2401136Y1064000*
X2400864Y1063250*
X2400591Y1062125*
Y1060250*
X2400864Y1059125*
X2401136Y1058375*
X2401682Y1057625*
X2402227Y1057250*
X2403318*
X2403864Y1057625*
X2404409Y1058375*
X2404682Y1059125*
X2404955Y1060250*
Y1062125*
X2404682Y1063250*
X2404409Y1064000*
X2403864Y1064750*
X2403318Y1065125*
X2402227*
X2411500Y1063250D02*
X2411227Y1064000D01*
X2410682Y1064750*
X2410136Y1065125*
X2409045*
X2408500Y1064750*
X2407955Y1064000*
X2407682Y1063250*
X2407409Y1062125*
Y1060250*
X2407682Y1059125*
X2407955Y1058375*
X2408500Y1057625*
X2409045Y1057250*
X2410136*
X2410682Y1057625*
X2411227Y1058375*
X2411500Y1059125*
X2413955Y1065125D02*
Y1059500D01*
X2414227Y1058375*
X2414773Y1057625*
X2415591Y1057250*
X2416136*
X2416955Y1057625*
X2417500Y1058375*
X2417773Y1059500*
Y1065125*
X2420227D02*
Y1057250D01*
Y1065125D02*
X2422409Y1057250D01*
X2424591Y1065125D02*
X2422409Y1057250D01*
X2424591Y1065125D02*
Y1057250D01*
X2427045Y1065125D02*
Y1057250D01*
Y1065125D02*
X2430591D01*
X2427045Y1061375D02*
X2429227D01*
X2427045Y1057250D02*
X2430591D01*
X2433045Y1065125D02*
Y1057250D01*
Y1065125D02*
X2436864Y1057250D01*
Y1065125D02*
Y1057250D01*
X2441227Y1065125D02*
Y1057250D01*
X2439318Y1065125D02*
X2443136D01*
X2451864D02*
Y1057250D01*
Y1065125D02*
X2455409D01*
X2451864Y1061375D02*
X2454045D01*
X2451864Y1057250D02*
X2455409D01*
X2461682Y1064000D02*
X2461136Y1064750D01*
X2460318Y1065125*
X2459227*
X2458409Y1064750*
X2457864Y1064000*
Y1063250*
X2458136Y1062500*
X2458409Y1062125*
X2458955Y1061750*
X2460591Y1061000*
X2461136Y1060625*
X2461409Y1060250*
X2461682Y1059500*
Y1058375*
X2461136Y1057625*
X2460318Y1057250*
X2459227*
X2458409Y1057625*
X2457864Y1058375*
X2466045Y1065125D02*
Y1057250D01*
X2464136Y1065125D02*
X2467955D01*
X2476682D02*
Y1057250D01*
X2479955*
X2484591Y1065125D02*
X2482409Y1057250D01*
X2484591Y1065125D02*
X2486773Y1057250D01*
X2483227Y1059875D02*
X2485955D01*
X2495500Y1065125D02*
Y1057250D01*
Y1065125D02*
X2497955D01*
X2498773Y1064750*
X2499045Y1064375*
X2499318Y1063625*
Y1062500*
X2499045Y1061750*
X2498773Y1061375*
X2497955Y1061000*
X2495500*
X2501773Y1065125D02*
Y1057250D01*
Y1065125D02*
X2504227D01*
X2505045Y1064750*
X2505318Y1064375*
X2505591Y1063625*
Y1062875*
X2505318Y1062125*
X2505045Y1061750*
X2504227Y1061375*
X2501773*
X2503682D02*
X2505591Y1057250D01*
X2509682Y1065125D02*
X2509136Y1064750D01*
X2508591Y1064000*
X2508318Y1063250*
X2508045Y1062125*
Y1060250*
X2508318Y1059125*
X2508591Y1058375*
X2509136Y1057625*
X2509682Y1057250*
X2510773*
X2511318Y1057625*
X2511864Y1058375*
X2512136Y1059125*
X2512409Y1060250*
Y1062125*
X2512136Y1063250*
X2511864Y1064000*
X2511318Y1064750*
X2510773Y1065125*
X2509682*
X2514864D02*
Y1057250D01*
Y1065125D02*
X2517318D01*
X2518136Y1064750*
X2518409Y1064375*
X2518682Y1063625*
Y1062500*
X2518409Y1061750*
X2518136Y1061375*
X2517318Y1061000*
X2514864*
X2521136Y1065125D02*
Y1057250D01*
Y1065125D02*
X2523591D01*
X2524409Y1064750*
X2524682Y1064375*
X2524955Y1063625*
Y1062875*
X2524682Y1062125*
X2524409Y1061750*
X2523591Y1061375*
X2521136*
X2523045D02*
X2524955Y1057250D01*
X2527409Y1065125D02*
Y1057250D01*
X2529864Y1065125D02*
Y1057250D01*
Y1065125D02*
X2533409D01*
X2529864Y1061375D02*
X2532045D01*
X2529864Y1057250D02*
X2533409D01*
X2537773Y1065125D02*
Y1057250D01*
X2535864Y1065125D02*
X2539682D01*
X2542136D02*
Y1057250D01*
Y1065125D02*
X2545682D01*
X2542136Y1061375D02*
X2544318D01*
X2542136Y1057250D02*
X2545682D01*
X2554409Y1065125D02*
Y1057250D01*
Y1065125D02*
X2556318D01*
X2557136Y1064750*
X2557682Y1064000*
X2557955Y1063250*
X2558227Y1062125*
Y1060250*
X2557955Y1059125*
X2557682Y1058375*
X2557136Y1057625*
X2556318Y1057250*
X2554409*
X2560682Y1065125D02*
Y1057250D01*
Y1065125D02*
X2564227D01*
X2560682Y1061375D02*
X2562864D01*
X2560682Y1057250D02*
X2564227D01*
X2572955Y1065125D02*
Y1057250D01*
X2576227*
X2580864Y1065125D02*
X2578682Y1057250D01*
X2580864Y1065125D02*
X2583045Y1057250D01*
X2579500Y1059875D02*
X2582227D01*
X2595864Y1063250D02*
X2595591Y1064000D01*
X2595045Y1064750*
X2594500Y1065125*
X2593409*
X2592864Y1064750*
X2592318Y1064000*
X2592045Y1063250*
X2591773Y1062125*
Y1060250*
X2592045Y1059125*
X2592318Y1058375*
X2592864Y1057625*
X2593409Y1057250*
X2594500*
X2595045Y1057625*
X2595591Y1058375*
X2595864Y1059125*
X2599955Y1065125D02*
X2599409Y1064750D01*
X2598864Y1064000*
X2598591Y1063250*
X2598318Y1062125*
Y1060250*
X2598591Y1059125*
X2598864Y1058375*
X2599409Y1057625*
X2599955Y1057250*
X2601045*
X2601591Y1057625*
X2602136Y1058375*
X2602409Y1059125*
X2602682Y1060250*
Y1062125*
X2602409Y1063250*
X2602136Y1064000*
X2601591Y1064750*
X2601045Y1065125*
X2599955*
X2605136D02*
Y1057250D01*
Y1065125D02*
X2607318Y1057250D01*
X2609500Y1065125D02*
X2607318Y1057250D01*
X2609500Y1065125D02*
Y1057250D01*
X2611955Y1065125D02*
Y1057250D01*
Y1065125D02*
X2614409D01*
X2615227Y1064750*
X2615500Y1064375*
X2615773Y1063625*
Y1062500*
X2615500Y1061750*
X2615227Y1061375*
X2614409Y1061000*
X2611955*
X2620409Y1065125D02*
X2618227Y1057250D01*
X2620409Y1065125D02*
X2622591Y1057250D01*
X2619045Y1059875D02*
X2621773D01*
X2629136Y1063250D02*
X2628864Y1064000D01*
X2628318Y1064750*
X2627773Y1065125*
X2626682*
X2626136Y1064750*
X2625591Y1064000*
X2625318Y1063250*
X2625045Y1062125*
Y1060250*
X2625318Y1059125*
X2625591Y1058375*
X2626136Y1057625*
X2626682Y1057250*
X2627773*
X2628318Y1057625*
X2628864Y1058375*
X2629136Y1059125*
Y1060250*
X2627773D02*
X2629136D01*
X2631591Y1065125D02*
Y1057250D01*
Y1065125D02*
X2635409Y1057250D01*
Y1065125D02*
Y1057250D01*
X2637864Y1065125D02*
Y1057250D01*
X2640318Y1065125D02*
Y1057250D01*
Y1065125D02*
X2643864D01*
X2640318Y1061375D02*
X2642500D01*
X2640318Y1057250D02*
X2643864D01*
X2375500Y1055125D02*
Y1047250D01*
Y1055125D02*
X2379045D01*
X2375500Y1051375D02*
X2377682D01*
X2375500Y1047250D02*
X2379045D01*
X2381500Y1055125D02*
Y1047250D01*
X2383955Y1052500D02*
Y1048750D01*
X2384227Y1047625*
X2384773Y1047250*
X2385591*
X2386136Y1047625*
X2386955Y1048750*
Y1052500D02*
Y1047250D01*
X2389409Y1052500D02*
Y1047250D01*
Y1051000D02*
X2390227Y1052125D01*
X2390773Y1052500*
X2391591*
X2392136Y1052125*
X2392409Y1051000*
Y1047250*
Y1051000D02*
X2393227Y1052125D01*
X2393773Y1052500*
X2394591*
X2395136Y1052125*
X2395409Y1051000*
Y1047250*
X2397864Y1050250D02*
X2401136D01*
Y1051000*
X2400864Y1051750*
X2400591Y1052125*
X2400045Y1052500*
X2399227*
X2398682Y1052125*
X2398136Y1051375*
X2397864Y1050250*
Y1049500*
X2398136Y1048375*
X2398682Y1047625*
X2399227Y1047250*
X2400045*
X2400591Y1047625*
X2401136Y1048375*
X2403591Y1052500D02*
Y1047250D01*
Y1051000D02*
X2404409Y1052125D01*
X2404955Y1052500*
X2405773*
X2406318Y1052125*
X2406591Y1051000*
Y1047250*
X2409318Y1048000D02*
X2409045Y1047625D01*
X2409318Y1047250*
X2409591Y1047625*
X2409318Y1048000*
X2418318Y1055125D02*
Y1047250D01*
X2420773Y1055125D02*
Y1047250D01*
X2424045*
X2432773Y1055125D02*
Y1047250D01*
Y1055125D02*
X2436591Y1047250D01*
Y1055125D02*
Y1047250D01*
X2439045Y1055125D02*
Y1047250D01*
Y1055125D02*
X2442591D01*
X2439045Y1051375D02*
X2441227D01*
X2439045Y1047250D02*
X2442591D01*
X2451318Y1055125D02*
Y1047250D01*
Y1055125D02*
X2453227D01*
X2454045Y1054750*
X2454591Y1054000*
X2454864Y1053250*
X2455136Y1052125*
Y1050250*
X2454864Y1049125*
X2454591Y1048375*
X2454045Y1047625*
X2453227Y1047250*
X2451318*
X2459227Y1055125D02*
X2458682Y1054750D01*
X2458136Y1054000*
X2457864Y1053250*
X2457591Y1052125*
Y1050250*
X2457864Y1049125*
X2458136Y1048375*
X2458682Y1047625*
X2459227Y1047250*
X2460318*
X2460864Y1047625*
X2461409Y1048375*
X2461682Y1049125*
X2461955Y1050250*
Y1052125*
X2461682Y1053250*
X2461409Y1054000*
X2460864Y1054750*
X2460318Y1055125*
X2459227*
X2464409D02*
Y1047250D01*
X2468773Y1055125D02*
Y1047250D01*
X2466864Y1055125D02*
X2470682D01*
X2479409D02*
Y1047250D01*
Y1055125D02*
X2481864D01*
X2482682Y1054750*
X2482955Y1054375*
X2483227Y1053625*
Y1052500*
X2482955Y1051750*
X2482682Y1051375*
X2481864Y1051000*
X2479409*
X2487864Y1055125D02*
X2485682Y1047250D01*
X2487864Y1055125D02*
X2490045Y1047250D01*
X2486500Y1049875D02*
X2489227D01*
X2496318Y1054000D02*
X2495773Y1054750D01*
X2494955Y1055125*
X2493864*
X2493045Y1054750*
X2492500Y1054000*
Y1053250*
X2492773Y1052500*
X2493045Y1052125*
X2493591Y1051750*
X2495227Y1051000*
X2495773Y1050625*
X2496045Y1050250*
X2496318Y1049500*
Y1048375*
X2495773Y1047625*
X2494955Y1047250*
X2493864*
X2493045Y1047625*
X2492500Y1048375*
X2505045Y1055125D02*
Y1047250D01*
Y1055125D02*
X2508591D01*
X2505045Y1051375D02*
X2507227D01*
X2505045Y1047250D02*
X2508591D01*
X2512955Y1055125D02*
Y1047250D01*
X2511045Y1055125D02*
X2514864D01*
X2517318D02*
Y1047250D01*
Y1055125D02*
X2519773D01*
X2520591Y1054750*
X2520864Y1054375*
X2521136Y1053625*
Y1052875*
X2520864Y1052125*
X2520591Y1051750*
X2519773Y1051375*
X2517318*
X2519227D02*
X2521136Y1047250D01*
X2523591Y1055125D02*
Y1047250D01*
Y1055125D02*
X2527136D01*
X2523591Y1051375D02*
X2525773D01*
X2523591Y1047250D02*
X2527136D01*
X2535864Y1055125D02*
Y1049500D01*
X2536136Y1048375*
X2536682Y1047625*
X2537500Y1047250*
X2538045*
X2538864Y1047625*
X2539409Y1048375*
X2539682Y1049500*
Y1055125*
X2544045D02*
Y1047250D01*
X2542136Y1055125D02*
X2545955D01*
X2548409D02*
Y1047250D01*
X2550864Y1055125D02*
Y1047250D01*
X2554136*
X2556591Y1055125D02*
Y1047250D01*
X2562864Y1054000D02*
X2562318Y1054750D01*
X2561500Y1055125*
X2560409*
X2559591Y1054750*
X2559045Y1054000*
Y1053250*
X2559318Y1052500*
X2559591Y1052125*
X2560136Y1051750*
X2561773Y1051000*
X2562318Y1050625*
X2562591Y1050250*
X2562864Y1049500*
Y1048375*
X2562318Y1047625*
X2561500Y1047250*
X2560409*
X2559591Y1047625*
X2559045Y1048375*
X2565318Y1055125D02*
Y1047250D01*
Y1055125D02*
X2568864D01*
X2565318Y1051375D02*
X2567500D01*
X2565318Y1047250D02*
X2568864D01*
X2571864Y1047625D02*
X2571591Y1047250D01*
X2571318Y1047625*
X2571591Y1048000*
X2571864Y1047625*
Y1046875*
X2571591Y1046125*
X2571318Y1045750*
X2375500Y1045125D02*
Y1037250D01*
Y1045125D02*
X2377955D01*
X2378773Y1044750*
X2379045Y1044375*
X2379318Y1043625*
Y1042875*
X2379045Y1042125*
X2378773Y1041750*
X2377955Y1041375*
X2375500*
X2377409D02*
X2379318Y1037250D01*
X2381773Y1045125D02*
Y1037250D01*
Y1045125D02*
X2385318D01*
X2381773Y1041375D02*
X2383955D01*
X2381773Y1037250D02*
X2385318D01*
X2387773Y1045125D02*
Y1037250D01*
Y1045125D02*
X2390227D01*
X2391045Y1044750*
X2391318Y1044375*
X2391591Y1043625*
Y1042500*
X2391318Y1041750*
X2391045Y1041375*
X2390227Y1041000*
X2387773*
X2394045Y1045125D02*
Y1037250D01*
Y1045125D02*
X2396500D01*
X2397318Y1044750*
X2397591Y1044375*
X2397864Y1043625*
Y1042875*
X2397591Y1042125*
X2397318Y1041750*
X2396500Y1041375*
X2394045*
X2395955D02*
X2397864Y1037250D01*
X2401955Y1045125D02*
X2401409Y1044750D01*
X2400864Y1044000*
X2400591Y1043250*
X2400318Y1042125*
Y1040250*
X2400591Y1039125*
X2400864Y1038375*
X2401409Y1037625*
X2401955Y1037250*
X2403045*
X2403591Y1037625*
X2404136Y1038375*
X2404409Y1039125*
X2404682Y1040250*
Y1042125*
X2404409Y1043250*
X2404136Y1044000*
X2403591Y1044750*
X2403045Y1045125*
X2401955*
X2407136D02*
Y1037250D01*
Y1045125D02*
X2409045D01*
X2409864Y1044750*
X2410409Y1044000*
X2410682Y1043250*
X2410955Y1042125*
Y1040250*
X2410682Y1039125*
X2410409Y1038375*
X2409864Y1037625*
X2409045Y1037250*
X2407136*
X2413409Y1045125D02*
Y1039500D01*
X2413682Y1038375*
X2414227Y1037625*
X2415045Y1037250*
X2415591*
X2416409Y1037625*
X2416955Y1038375*
X2417227Y1039500*
Y1045125*
X2419682D02*
Y1037250D01*
X2424045Y1045125D02*
Y1037250D01*
X2422136Y1045125D02*
X2425955D01*
X2428955Y1037625D02*
X2428682Y1037250D01*
X2428409Y1037625*
X2428682Y1038000*
X2428955Y1037625*
Y1036875*
X2428682Y1036125*
X2428409Y1035750*
X2441773Y1043250D02*
X2441500Y1044000D01*
X2440955Y1044750*
X2440409Y1045125*
X2439318*
X2438773Y1044750*
X2438227Y1044000*
X2437955Y1043250*
X2437682Y1042125*
Y1040250*
X2437955Y1039125*
X2438227Y1038375*
X2438773Y1037625*
X2439318Y1037250*
X2440409*
X2440955Y1037625*
X2441500Y1038375*
X2441773Y1039125*
X2445864Y1045125D02*
X2445318Y1044750D01*
X2444773Y1044000*
X2444500Y1043250*
X2444227Y1042125*
Y1040250*
X2444500Y1039125*
X2444773Y1038375*
X2445318Y1037625*
X2445864Y1037250*
X2446955*
X2447500Y1037625*
X2448045Y1038375*
X2448318Y1039125*
X2448591Y1040250*
Y1042125*
X2448318Y1043250*
X2448045Y1044000*
X2447500Y1044750*
X2446955Y1045125*
X2445864*
X2451045D02*
Y1037250D01*
Y1045125D02*
X2453500D01*
X2454318Y1044750*
X2454591Y1044375*
X2454864Y1043625*
Y1042500*
X2454591Y1041750*
X2454318Y1041375*
X2453500Y1041000*
X2451045*
X2457318Y1045125D02*
Y1037250D01*
X2459773Y1045125D02*
Y1037250D01*
Y1045125D02*
X2463318D01*
X2459773Y1041375D02*
X2461955D01*
X2459773Y1037250D02*
X2463318D01*
X2473682Y1045125D02*
X2473136Y1044750D01*
X2472591Y1044000*
X2472318Y1043250*
X2472045Y1042125*
Y1040250*
X2472318Y1039125*
X2472591Y1038375*
X2473136Y1037625*
X2473682Y1037250*
X2474773*
X2475318Y1037625*
X2475864Y1038375*
X2476136Y1039125*
X2476409Y1040250*
Y1042125*
X2476136Y1043250*
X2475864Y1044000*
X2475318Y1044750*
X2474773Y1045125*
X2473682*
X2478864D02*
Y1039500D01*
X2479136Y1038375*
X2479682Y1037625*
X2480500Y1037250*
X2481045*
X2481864Y1037625*
X2482409Y1038375*
X2482682Y1039500*
Y1045125*
X2495500Y1043250D02*
X2495227Y1044000D01*
X2494682Y1044750*
X2494136Y1045125*
X2493045*
X2492500Y1044750*
X2491955Y1044000*
X2491682Y1043250*
X2491409Y1042125*
Y1040250*
X2491682Y1039125*
X2491955Y1038375*
X2492500Y1037625*
X2493045Y1037250*
X2494136*
X2494682Y1037625*
X2495227Y1038375*
X2495500Y1039125*
X2499591Y1045125D02*
X2499045Y1044750D01*
X2498500Y1044000*
X2498227Y1043250*
X2497955Y1042125*
Y1040250*
X2498227Y1039125*
X2498500Y1038375*
X2499045Y1037625*
X2499591Y1037250*
X2500682*
X2501227Y1037625*
X2501773Y1038375*
X2502045Y1039125*
X2502318Y1040250*
Y1042125*
X2502045Y1043250*
X2501773Y1044000*
X2501227Y1044750*
X2500682Y1045125*
X2499591*
X2504773D02*
Y1037250D01*
Y1045125D02*
X2506955Y1037250D01*
X2509136Y1045125D02*
X2506955Y1037250D01*
X2509136Y1045125D02*
Y1037250D01*
X2511591Y1045125D02*
Y1037250D01*
Y1045125D02*
X2513773Y1037250D01*
X2515955Y1045125D02*
X2513773Y1037250D01*
X2515955Y1045125D02*
Y1037250D01*
X2518409Y1045125D02*
Y1039500D01*
X2518682Y1038375*
X2519227Y1037625*
X2520045Y1037250*
X2520591*
X2521409Y1037625*
X2521955Y1038375*
X2522227Y1039500*
Y1045125*
X2524682D02*
Y1037250D01*
Y1045125D02*
X2528500Y1037250D01*
Y1045125D02*
Y1037250D01*
X2530955Y1045125D02*
Y1037250D01*
X2535045Y1045125D02*
X2534500Y1044750D01*
X2533955Y1044000*
X2533682Y1043250*
X2533409Y1042125*
Y1040250*
X2533682Y1039125*
X2533955Y1038375*
X2534500Y1037625*
X2535045Y1037250*
X2536136*
X2536682Y1037625*
X2537227Y1038375*
X2537500Y1039125*
X2537773Y1040250*
Y1042125*
X2537500Y1043250*
X2537227Y1044000*
X2536682Y1044750*
X2536136Y1045125*
X2535045*
X2535864Y1038750D02*
X2537500Y1036500D01*
X2540227Y1045125D02*
Y1039500D01*
X2540500Y1038375*
X2541045Y1037625*
X2541864Y1037250*
X2542409*
X2543227Y1037625*
X2543773Y1038375*
X2544045Y1039500*
Y1045125*
X2546500D02*
Y1037250D01*
Y1045125D02*
X2550045D01*
X2546500Y1041375D02*
X2548682D01*
X2546500Y1037250D02*
X2550045D01*
X2560955Y1045125D02*
X2558773Y1037250D01*
X2560955Y1045125D02*
X2563136Y1037250D01*
X2559591Y1039875D02*
X2562318D01*
X2571864Y1045125D02*
Y1037250D01*
Y1045125D02*
X2573773D01*
X2574591Y1044750*
X2575136Y1044000*
X2575409Y1043250*
X2575682Y1042125*
Y1040250*
X2575409Y1039125*
X2575136Y1038375*
X2574591Y1037625*
X2573773Y1037250*
X2571864*
X2578136Y1045125D02*
Y1042500D01*
X2583318Y1045125D02*
X2581136Y1037250D01*
X2583318Y1045125D02*
X2585500Y1037250D01*
X2581955Y1039875D02*
X2584682D01*
X2587955Y1045125D02*
Y1039500D01*
X2588227Y1038375*
X2588773Y1037625*
X2589591Y1037250*
X2590136*
X2590955Y1037625*
X2591500Y1038375*
X2591773Y1039500*
Y1045125*
X2596136D02*
Y1037250D01*
X2594227Y1045125D02*
X2598045D01*
X2600500D02*
Y1037250D01*
Y1045125D02*
X2602955D01*
X2603773Y1044750*
X2604045Y1044375*
X2604318Y1043625*
Y1042875*
X2604045Y1042125*
X2603773Y1041750*
X2602955Y1041375*
X2600500*
X2602409D02*
X2604318Y1037250D01*
X2606773Y1045125D02*
Y1037250D01*
Y1045125D02*
X2610318D01*
X2606773Y1041375D02*
X2608955D01*
X2606773Y1037250D02*
X2610318D01*
X2616591Y1044000D02*
X2616045Y1044750D01*
X2615227Y1045125*
X2614136*
X2613318Y1044750*
X2612773Y1044000*
Y1043250*
X2613045Y1042500*
X2613318Y1042125*
X2613864Y1041750*
X2615500Y1041000*
X2616045Y1040625*
X2616318Y1040250*
X2616591Y1039500*
Y1038375*
X2616045Y1037625*
X2615227Y1037250*
X2614136*
X2613318Y1037625*
X2612773Y1038375*
X2778000Y1148472D02*
Y1137250D01*
Y1148472D02*
X2783052D01*
X2778000Y1143128D02*
X2781109D01*
X2778000Y1137250D02*
X2783052D01*
X2786550Y1148472D02*
Y1137250D01*
X2791214*
X2794711Y1148472D02*
Y1140456D01*
X2795100Y1138853*
X2795877Y1137784*
X2797043Y1137250*
X2797820*
X2798986Y1137784*
X2799764Y1138853*
X2800152Y1140456*
Y1148472*
X2803650D02*
Y1137250D01*
Y1148472D02*
X2806759Y1137250D01*
X2809868Y1148472D02*
X2806759Y1137250D01*
X2809868Y1148472D02*
Y1137250D01*
X2813366Y1148472D02*
Y1137250D01*
Y1148472D02*
X2818418D01*
X2813366Y1143128D02*
X2816475D01*
X2813366Y1137250D02*
X2818418D01*
X2821916Y1148472D02*
Y1137250D01*
Y1148472D02*
X2827357Y1137250D01*
Y1148472D02*
Y1137250D01*
X2839793Y1148472D02*
Y1137250D01*
X2844457*
X2847955Y1148472D02*
Y1137250D01*
X2857282Y1145800D02*
X2856893Y1146869D01*
X2856116Y1147938*
X2856116D02*
X2855339Y1148472D01*
X2853784*
X2853007Y1147938*
X2853007D02*
X2852230Y1146869D01*
X2851841Y1145800*
X2851452Y1144197*
Y1141525*
X2851841Y1139922*
X2852230Y1138853*
X2853007Y1137784*
X2853784Y1137250*
X2855339*
X2856116Y1137784*
X2856893Y1138853*
X2857282Y1139922*
Y1141525*
X2855339D02*
X2857282D01*
X2860780Y1148472D02*
Y1137250D01*
X2866220Y1148472D02*
Y1137250D01*
X2860780Y1143128D02*
X2866220D01*
X2872439Y1148472D02*
Y1137250D01*
X2869718Y1148472D02*
X2875159D01*
X2887595D02*
Y1137250D01*
Y1148472D02*
X2893036Y1137250D01*
Y1148472D02*
Y1137250D01*
X2896534Y1148472D02*
Y1137250D01*
Y1148472D02*
X2901586D01*
X2896534Y1143128D02*
X2899643D01*
X2896534Y1137250D02*
X2901586D01*
X2907805Y1148472D02*
Y1137250D01*
X2905084Y1148472D02*
X2910525D01*
X2914023D02*
X2915966Y1137250D01*
X2917909Y1148472D02*
X2915966Y1137250D01*
X2917909Y1148472D02*
X2919852Y1137250D01*
X2921795Y1148472D02*
X2919852Y1137250D01*
X2927625Y1148472D02*
X2926848Y1147938D01*
X2926848D02*
X2926070Y1146869D01*
X2925682Y1145800*
X2925293Y1144197*
Y1141525*
X2925682Y1139922*
X2926070Y1138853*
X2926848Y1137784*
X2927625Y1137250*
X2929180*
X2929957Y1137784*
X2930734Y1138853*
X2931123Y1139922*
X2931511Y1141525*
Y1144197*
X2931123Y1145800*
X2930734Y1146869*
X2929957Y1147938*
X2929957D02*
X2929180Y1148472D01*
X2927625*
X2935009D02*
Y1137250D01*
Y1148472D02*
X2938507D01*
X2939673Y1147938*
X2939673D02*
X2940061Y1147403D01*
X2940450Y1146334*
Y1145266*
X2940061Y1144197*
X2939673Y1143663*
X2939673D02*
X2938507Y1143128D01*
X2935009*
X2937730D02*
X2940450Y1137250D01*
X2943948Y1148472D02*
Y1137250D01*
X2949389Y1148472D02*
X2943948Y1140991D01*
X2945891Y1143663D02*
X2949389Y1137250D01*
X2800830Y977300D02*
X2800441Y978369D01*
X2799664Y979438*
X2799664D02*
X2798886Y979972D01*
X2797332*
X2796555Y979438*
X2796555D02*
X2795777Y978369D01*
X2795389Y977300*
X2795000Y975697*
Y973025*
X2795389Y971422*
X2795777Y970353*
X2796555Y969284*
X2797332Y968750*
X2798886*
X2799664Y969284*
X2800441Y970353*
X2800830Y971422*
X2806659Y979972D02*
X2805882Y979438D01*
X2805882D02*
X2805105Y978369D01*
X2804716Y977300*
X2804327Y975697*
Y973025*
X2804716Y971422*
X2805105Y970353*
X2805882Y969284*
X2806659Y968750*
X2808214*
X2808991Y969284*
X2809768Y970353*
X2810157Y971422*
X2810545Y973025*
Y975697*
X2810157Y977300*
X2809768Y978369*
X2808991Y979438*
X2808991D02*
X2808214Y979972D01*
X2806659*
X2814043D02*
Y968750D01*
Y979972D02*
X2819484Y968750D01*
Y979972D02*
Y968750D01*
X2822982Y979972D02*
Y968750D01*
Y979972D02*
X2828423Y968750D01*
Y979972D02*
Y968750D01*
X2831920Y979972D02*
Y968750D01*
Y979972D02*
X2836973D01*
X2831920Y974628D02*
X2835030D01*
X2831920Y968750D02*
X2836973D01*
X2846300Y977300D02*
X2845911Y978369D01*
X2845134Y979438*
X2845134D02*
X2844357Y979972D01*
X2842802*
X2842025Y979438*
X2842025D02*
X2841248Y978369D01*
X2840859Y977300*
X2840470Y975697*
Y973025*
X2840859Y971422*
X2841248Y970353*
X2842025Y969284*
X2842802Y968750*
X2844357*
X2845134Y969284*
X2845911Y970353*
X2846300Y971422*
X2852518Y979972D02*
Y968750D01*
X2849798Y979972D02*
X2855239D01*
X2858736D02*
Y968750D01*
X2864566Y979972D02*
X2863789Y979438D01*
X2863789D02*
X2863011Y978369D01*
X2862623Y977300*
X2862234Y975697*
Y973025*
X2862623Y971422*
X2863011Y970353*
X2863789Y969284*
X2864566Y968750*
X2866120*
X2866898Y969284*
X2867675Y970353*
X2868064Y971422*
X2868452Y973025*
Y975697*
X2868064Y977300*
X2867675Y978369*
X2866898Y979438*
X2866898D02*
X2866120Y979972D01*
X2864566*
X2871950D02*
Y968750D01*
Y979972D02*
X2877391Y968750D01*
Y979972D02*
Y968750D01*
X2886330Y978369D02*
X2885552Y979438D01*
X2885552D02*
X2884386Y979972D01*
X2882832*
X2881666Y979438*
X2881666D02*
X2880889Y978369D01*
Y977300*
X2881277Y976231*
X2881666Y975697*
X2882443Y975163*
X2882443D02*
X2884775Y974094D01*
X2885552Y973559*
X2885941Y973025*
X2886330Y971956*
Y970353*
X2885552Y969284*
X2884386Y968750*
X2882832*
X2881666Y969284*
X2880889Y970353*
X2898766Y979972D02*
Y968750D01*
Y979972D02*
X2902264D01*
X2903430Y979438*
X2903430D02*
X2903818Y978903D01*
X2904207Y977834*
Y976766*
X2903818Y975697*
X2903430Y975163*
X2903430D02*
X2902264Y974628D01*
X2898766D02*
X2902264D01*
X2903430Y974094*
X2903818Y973559*
X2904207Y972491*
Y970888*
X2904207D02*
X2903818Y969819D01*
X2903430Y969284*
X2902264Y968750*
X2898766*
X2910036Y979972D02*
X2909259Y979438D01*
X2909259D02*
X2908482Y978369D01*
X2908093Y977300*
X2907705Y975697*
Y973025*
X2908093Y971422*
X2908482Y970353*
X2909259Y969284*
X2910036Y968750*
X2911591*
X2912368Y969284*
X2913145Y970353*
X2913534Y971422*
X2913923Y973025*
Y975697*
X2913534Y977300*
X2913145Y978369*
X2912368Y979438*
X2912368D02*
X2911591Y979972D01*
X2910036*
X2920530D02*
X2917420Y968750D01*
X2920530Y979972D02*
X2923639Y968750D01*
X2918586Y972491D02*
X2922473D01*
X2927136Y979972D02*
Y968750D01*
Y979972D02*
X2930634D01*
X2931800Y979438*
X2931800D02*
X2932189Y978903D01*
X2932577Y977834*
Y976766*
X2932189Y975697*
X2931800Y975163*
X2931800D02*
X2930634Y974628D01*
X2927136*
X2929857D02*
X2932577Y968750D01*
X2936075Y979972D02*
Y968750D01*
Y979972D02*
X2938795D01*
X2939961Y979438*
X2939961D02*
X2940739Y978369D01*
X2941127Y977300*
X2941516Y975697*
Y973025*
X2941127Y971422*
X2940739Y970353*
X2939961Y969284*
X2938795Y968750*
X2936075*
X2957500Y977834D02*
X2958277Y978369D01*
X2959443Y979972*
Y968750*
X2987500Y980334D02*
X2988277Y980869D01*
X2989443Y982472*
Y971250*
X1410000Y1416250D02*
X1802500D01*
Y1808750*
X1410000*
Y1416250*
G54D40*
X2448682Y1085531D02*
X2448455Y1085375D01*
X2448227Y1085063*
X2448227D02*
X2448114Y1084750D01*
X2448000Y1084281*
Y1083500*
X2448114Y1083031*
X2448227Y1082719*
X2448455Y1082406*
X2448682Y1082250*
X2449136*
X2449364Y1082406*
X2449591Y1082719*
X2449705Y1083031*
X2449818Y1083500*
Y1084281*
X2449705Y1084750*
X2449591Y1085063*
X2449591D02*
X2449364Y1085375D01*
X2449136Y1085531*
X2448682*
G54D47*
X0Y0D02*
M02*
